<?xml version="1.0" encoding="UTF-8"?>
<!-- Generator: visioncortex VTracer 0.6.3 -->
<svg version="1.1" xmlns="http://www.w3.org/2000/svg" width="1280" height="1280">
<path d="M0 0 C1.39 -0 1.39 -0 2.8 -0.01 C5.86 -0.01 8.92 -0.01 11.99 -0 C14.11 -0 16.24 -0.01 18.37 -0.01 C22.84 -0.01 27.31 -0.01 31.78 -0 C37.49 0 43.21 0 48.92 -0 C53.32 -0.01 57.72 -0.01 62.12 -0 C64.23 -0 66.33 -0 68.44 -0.01 C71.39 -0.01 74.35 -0.01 77.3 0 C78.16 -0 79.03 -0 79.92 -0.01 C85.03 0.01 89.91 0.42 94.97 1.13 C97.64 1.34 100.3 1.49 102.97 1.63 C108.35 1.94 113.65 2.34 118.97 3.13 C120.53 3.35 120.53 3.35 122.13 3.57 C127.63 4.36 132.72 5.24 137.97 7.13 C138.3 6.47 138.63 5.81 138.97 5.13 C138.97 5.79 138.97 6.45 138.97 7.13 C140.17 7.19 140.17 7.19 141.4 7.24 C148.37 7.66 154.78 8.62 161.51 10.51 C164.04 11.25 164.04 11.25 166.97 11.13 C168.98 11.44 170.98 11.77 172.97 12.13 C172.97 12.79 172.97 13.45 172.97 14.13 C173.53 13.95 174.08 13.76 174.65 13.57 C177.43 13.04 179.35 13.44 182.1 14.07 C185.51 14.86 185.51 14.86 188.97 15.13 C188.97 15.79 188.97 16.45 188.97 17.13 C189.64 17.18 190.3 17.23 190.99 17.28 C195.72 17.68 199.58 18.25 203.97 20.13 C206.68 20.3 206.68 20.3 208.97 20.13 C208.97 20.79 208.97 21.45 208.97 22.13 C210.46 22.01 210.46 22.01 211.97 21.88 C216.01 21.85 218.73 23.27 222.18 25.25 C224.09 26.35 224.09 26.35 226.97 26.13 C228.36 26.52 229.74 26.97 231.1 27.44 C231.89 27.71 232.68 27.99 233.49 28.27 C234.31 28.55 235.13 28.84 235.97 29.13 C237.58 29.67 239.18 30.22 240.79 30.75 C241.49 30.99 242.2 31.23 242.93 31.48 C244.96 32.16 244.96 32.16 247.05 32.59 C248.97 33.13 248.97 33.13 251.97 35.13 C253.64 35.47 255.31 35.8 256.97 36.13 C258.31 36.8 259.64 37.46 260.97 38.13 C261.96 38.13 262.95 38.13 263.97 38.13 C263.97 38.79 263.97 39.45 263.97 40.13 C264.74 40.07 265.5 40.01 266.29 39.94 C269.54 40.17 269.77 40.93 271.97 43.13 C274.6 43.38 274.6 43.38 276.97 43.13 C276.97 43.79 276.97 44.45 276.97 45.13 C278.29 45.13 279.61 45.13 280.97 45.13 C280.97 45.79 280.97 46.45 280.97 47.13 C284.93 47.62 284.93 47.62 288.97 48.13 C288.97 48.79 288.97 49.45 288.97 50.13 C290.62 50.13 292.27 50.13 293.97 50.13 C294.3 50.79 294.63 51.45 294.97 52.13 C297.09 53.04 297.09 53.04 299.54 53.75 C300.78 54.14 300.78 54.14 302.04 54.54 C302.68 54.74 303.32 54.93 303.97 55.13 C303.97 55.79 303.97 56.45 303.97 57.13 C307.93 57.62 307.93 57.62 311.97 58.13 C311.97 58.79 311.97 59.45 311.97 60.13 C315.75 62.19 315.75 62.19 319.8 63.54 C322.74 64.34 325.26 65.68 327.97 67.07 C329.01 67.59 330.04 68.12 331.1 68.66 C332.79 69.52 334.48 70.39 336.16 71.26 C338.13 72.25 338.13 72.25 340.97 73.13 C340.97 74.12 340.97 75.11 340.97 76.13 C341.72 75.88 342.46 75.63 343.22 75.38 C344.13 75.3 345.04 75.21 345.97 75.13 C348.1 77 348.1 77 349.97 79.13 C350.96 79.46 351.95 79.79 352.97 80.13 C353.63 80.79 354.29 81.45 354.97 82.13 C356.29 82.83 357.63 83.49 358.97 84.13 C363.09 86.12 366.91 88.23 370.41 91.19 C373.19 93.29 375.68 94.08 378.97 95.13 C379.3 95.79 379.63 96.45 379.97 97.13 C381.91 98.22 381.91 98.22 383.97 99.13 C384.63 99.46 385.29 99.79 385.97 100.13 C385.97 100.79 385.97 101.45 385.97 102.13 C386.84 102.32 386.84 102.32 387.72 102.5 C390.02 103.14 391.91 103.92 393.97 105.13 C394.3 105.79 394.63 106.45 394.97 107.13 C395.68 107.4 396.38 107.67 397.1 107.94 C401.64 109.82 405.51 112.66 408.97 116.13 C411.44 118.19 413.83 120.05 416.6 121.69 C418.78 123.01 420.19 124.35 421.97 126.13 C422.96 126.62 422.96 126.62 423.97 127.13 C426.12 128.2 427.36 129.37 428.97 131.13 C430.94 133.31 430.94 133.31 433.91 134.57 C437.95 136.63 439.54 137.83 440.97 142.13 C442.3 142.47 443.64 142.8 444.97 143.13 C448.22 145 448.22 145 450.97 147.13 C450.97 148.12 450.97 149.11 450.97 150.13 C451.63 150.13 452.29 150.13 452.97 150.13 C452.97 150.79 452.97 151.45 452.97 152.13 C453.96 152.46 454.95 152.79 455.97 153.13 C457 154.11 457.99 155.11 458.97 156.13 C462.26 158.92 462.26 158.92 465.97 161.07 C468.8 162.57 470.75 164.86 472.97 167.13 C474.24 168.4 475.51 169.66 476.78 170.92 C480.69 174.82 484.6 178.71 488.51 182.61 C490.2 184.29 491.88 185.97 493.57 187.65 C496.01 190.08 498.45 192.51 500.88 194.94 C501.64 195.69 502.39 196.43 503.16 197.2 C506.66 200.7 509.98 204.17 512.97 208.13 C515.65 211.35 518.31 214.5 521.35 217.38 C522.97 219.13 522.97 219.13 522.97 222.13 C523.63 222.13 524.29 222.13 524.97 222.13 C524.97 222.79 524.97 223.45 524.97 224.13 C525.96 224.13 526.95 224.13 527.97 224.13 C529.02 225.77 530.01 227.44 530.97 229.13 C531.59 229.75 532.21 230.37 532.85 231 C535.13 233.28 536.84 235.69 538.68 238.32 C539.94 240.08 541.27 241.73 542.66 243.38 C545.09 246.26 546.78 248.54 547.97 252.13 C548.63 252.13 549.29 252.13 549.97 252.13 C551.05 253.63 551.05 253.63 552.22 255.69 C554.37 259.29 556.78 262.33 559.55 265.46 C564.97 271.81 564.97 271.81 564.97 275.13 C565.63 275.13 566.29 275.13 566.97 275.13 C567.24 275.91 567.51 276.7 567.79 277.5 C568.82 280.41 568.82 280.41 571.97 282.13 C572.66 284.75 572.66 284.75 572.97 287.13 C573.63 287.13 574.29 287.13 574.97 287.13 C575.35 287.93 575.35 287.93 575.74 288.74 C577.57 292.48 579.35 295.88 581.97 299.13 C584.93 303.02 587.24 306.54 588.97 311.13 C589.67 312.04 589.67 312.04 590.37 312.97 C592.06 315.25 593.25 317.51 594.47 320.07 C596.63 324.48 599.01 328.62 601.66 332.75 C602.97 335.13 602.97 335.13 602.97 338.13 C603.63 338.13 604.29 338.13 604.97 338.13 C607.01 341.86 607.97 343.8 607.97 348.13 C608.63 348.13 609.29 348.13 609.97 348.13 C612.01 351.86 612.97 353.8 612.97 358.13 C613.63 358.13 614.29 358.13 614.97 358.13 C617.97 364.75 617.97 364.75 617.97 368.13 C618.63 368.13 619.29 368.13 619.97 368.13 C619.97 369.45 619.97 370.77 619.97 372.13 C620.63 372.46 621.29 372.79 621.97 373.13 C622.26 374.18 622.55 375.23 622.85 376.32 C624.01 380.26 625.64 382.78 627.97 386.13 C629.37 389.14 629.97 390.8 629.97 394.13 C630.63 394.46 631.29 394.79 631.97 395.13 C632.57 397.78 632.72 400.42 632.97 403.13 C633.63 403.13 634.29 403.13 634.97 403.13 C634.97 404.45 634.97 405.77 634.97 407.13 C635.63 407.46 636.29 407.79 636.97 408.13 C637.45 409.74 637.93 411.36 638.35 412.99 C639.03 415.33 639.91 417.51 640.85 419.75 C642.88 424.7 644.44 429.73 645.95 434.86 C646.68 437.21 647.51 439.53 648.4 441.82 C650.7 447.85 652.18 454.12 653.81 460.35 C654.19 461.76 654.19 461.76 654.57 463.21 C654.9 464.48 654.9 464.48 655.24 465.78 C655.9 468.14 655.9 468.14 657.06 470.25 C658.33 472.87 657.97 475.24 657.97 478.13 C658.63 479.12 659.29 480.11 659.97 481.13 C661.87 486.42 663.17 491.55 663.04 497.19 C663.02 498.49 663 499.79 662.97 501.13 C663.63 501.79 664.29 502.45 664.97 503.13 C667.23 509.86 668.23 516.63 668.73 523.68 C669.06 526.97 670 529.97 670.97 533.13 C672.71 539.84 673.31 546.51 673.54 553.42 C673.68 556.49 673.96 559.08 674.97 561.99 C676.36 566.34 676.36 570.53 676.47 575.07 C676.52 576.81 676.57 578.54 676.63 580.28 C676.65 581.04 676.67 581.81 676.69 582.59 C676.9 585.26 676.9 585.26 677.98 588.19 C679.27 592.67 679.25 596.99 679.23 601.63 C679.24 602.55 679.24 603.48 679.24 604.43 C679.25 607.48 679.25 610.52 679.24 613.57 C679.24 615.69 679.24 617.82 679.25 619.94 C679.25 624.39 679.24 628.84 679.23 633.29 C679.22 638.98 679.23 644.67 679.24 650.37 C679.25 654.75 679.25 659.14 679.24 663.53 C679.24 665.63 679.24 667.73 679.25 669.82 C679.25 672.76 679.24 675.7 679.23 678.63 C679.24 679.49 679.24 680.36 679.24 681.24 C679.21 686.27 678.53 690.35 676.97 695.13 C676.65 697.62 676.65 697.62 676.63 699.98 C676.6 700.83 676.57 701.68 676.54 702.56 C676.5 704.32 676.45 706.08 676.41 707.83 C676.24 712.7 675.6 716.51 673.97 721.13 C673.72 723.66 673.53 726.21 673.41 728.75 C673.22 732.7 673.03 736.33 671.97 740.13 C671.45 743.23 670.96 746.34 670.47 749.45 C669.97 752.13 669.97 752.13 668.97 754.13 C668.77 755.77 668.61 757.42 668.47 759.07 C668.23 762.02 667.92 764.3 666.97 767.13 C664.72 775.25 664.72 775.25 663.54 783.57 C663.1 788.61 661.5 793.21 659.95 798 C659.15 800.55 658.51 803.02 657.97 805.63 C656.74 811.59 654.79 817.33 652.97 823.13 C652.05 826.29 651.15 829.45 650.33 832.64 C648.9 838.11 647.19 843.24 645.02 848.45 C643.4 852.61 642.16 856.87 640.9 861.15 C640.05 863.88 639.08 866.49 637.97 869.13 C637.64 869.13 637.31 869.13 636.97 869.13 C636.31 871.77 635.65 874.41 634.97 877.13 C634.31 877.13 633.65 877.13 632.97 877.13 C632.97 878.78 632.97 880.43 632.97 882.13 C632.31 882.13 631.65 882.13 630.97 882.13 C630.87 883.16 630.77 884.19 630.66 885.25 C629.65 890.96 626.94 895.24 623.97 900.13 C621.75 903.91 620.96 907.89 619.97 912.13 C619.31 912.13 618.65 912.13 617.97 912.13 C617.86 912.86 617.74 913.59 617.61 914.34 C616.97 917.15 616.05 919.27 614.72 921.82 C614.28 922.68 613.83 923.54 613.38 924.43 C612.91 925.32 612.45 926.21 611.97 927.13 C611.07 928.9 610.18 930.67 609.29 932.44 C608.69 933.61 608.69 933.61 608.09 934.81 C606.94 937.21 605.94 939.64 604.97 942.13 C604.31 942.13 603.65 942.13 602.97 942.13 C602.97 943.12 602.97 944.11 602.97 945.13 C601.65 944.8 600.33 944.47 598.97 944.13 C599.63 945.45 600.29 946.77 600.97 948.13 C600.52 948.67 600.07 949.2 599.6 949.75 C597.83 952.1 597.83 952.1 597.04 955.07 C595.87 958.42 594.23 960.43 591.97 963.13 C591.97 963.79 591.97 964.45 591.97 965.13 C591.33 965.36 590.7 965.58 590.04 965.82 C587.75 966.94 587.75 966.94 587.41 969.38 C587.27 970.29 587.12 971.19 586.97 972.13 C585.36 975.79 583.84 978.39 580.97 981.13 C578.26 985.31 576.09 989.75 573.97 994.25 C572.82 996.41 571.57 998.27 569.97 1000.13 C569.31 1000.13 568.65 1000.13 567.97 1000.13 C567.91 1000.85 567.85 1001.57 567.79 1002.32 C566.72 1006 564.7 1007.46 561.97 1010.13 C560.49 1012.41 559.25 1014.72 557.97 1017.13 C557.31 1017.13 556.65 1017.13 555.97 1017.13 C555.91 1017.85 555.85 1018.57 555.79 1019.32 C554.72 1023.01 552.87 1024.66 549.97 1027.13 C549.31 1027.13 548.65 1027.13 547.97 1027.13 C547.87 1027.87 547.77 1028.61 547.66 1029.38 C546.92 1032.33 546.03 1033.91 543.97 1036.13 C543.31 1036.13 542.65 1036.13 541.97 1036.13 C541.97 1036.79 541.97 1037.45 541.97 1038.13 C540.98 1038.79 539.99 1039.45 538.97 1040.13 C538.56 1041.02 538.15 1041.9 537.72 1042.82 C536.12 1045.86 534.85 1047.38 532.41 1049.69 C529.66 1052.31 528 1054.38 526.97 1058.13 C526.31 1058.13 525.65 1058.13 524.97 1058.13 C524.64 1059.12 524.31 1060.11 523.97 1061.13 C522.55 1062.53 522.55 1062.53 520.66 1064.07 C516.85 1067.31 513.23 1070.69 509.66 1074.19 C509.15 1074.69 508.63 1075.18 508.1 1075.69 C504.85 1078.91 502.91 1082.02 500.97 1086.13 C498.91 1087.25 498.91 1087.25 496.97 1088.13 C496.51 1089.12 496.51 1089.12 496.04 1090.13 C494.97 1092.13 494.97 1092.13 492.82 1092.86 C488.86 1094.63 486.41 1097.36 483.43 1100.45 C482.82 1101.07 482.21 1101.69 481.58 1102.32 C479.64 1104.29 477.71 1106.27 475.79 1108.25 C473.85 1110.24 471.91 1112.23 469.96 1114.21 C468.75 1115.44 467.54 1116.67 466.34 1117.91 C464.92 1119.36 463.45 1120.75 461.97 1122.13 C461.31 1122.13 460.65 1122.13 459.97 1122.13 C459.97 1122.79 459.97 1123.45 459.97 1124.13 C458.65 1124.13 457.33 1124.13 455.97 1124.13 C455.63 1124.96 455.63 1124.96 455.27 1125.81 C453.61 1128.77 451.55 1130.9 449.16 1133.32 C448.31 1134.2 447.46 1135.08 446.58 1135.98 C443.89 1138.19 442.39 1138.82 438.97 1139.13 C438.97 1139.79 438.97 1140.45 438.97 1141.13 C434.37 1145.89 428.91 1149.27 422.97 1152.13 C422.97 1152.79 422.97 1153.45 422.97 1154.13 C421.65 1154.13 420.33 1154.13 418.97 1154.13 C418.97 1154.79 418.97 1155.45 418.97 1156.13 C415.03 1159.73 410.92 1162.18 405.97 1164.13 C405.64 1165.12 405.31 1166.11 404.97 1167.13 C402.64 1167.8 400.31 1168.46 397.97 1169.13 C397.64 1170.12 397.31 1171.11 396.97 1172.13 C394.97 1172.8 392.97 1173.46 390.97 1174.13 C390.64 1175.12 390.31 1176.11 389.97 1177.13 C388.65 1177.13 387.33 1177.13 385.97 1177.13 C385.97 1177.79 385.97 1178.45 385.97 1179.13 C384.29 1180.42 384.29 1180.42 382.1 1181.75 C381.38 1182.2 380.66 1182.65 379.92 1183.11 C377.97 1184.13 377.97 1184.13 375.97 1184.13 C375.64 1185.12 375.31 1186.11 374.97 1187.13 C373.65 1187.13 372.33 1187.13 370.97 1187.13 C370.97 1187.79 370.97 1188.45 370.97 1189.13 C369.32 1189.13 367.67 1189.13 365.97 1189.13 C365.64 1190.12 365.31 1191.11 364.97 1192.13 C361.97 1194.13 361.97 1194.13 357.97 1194.13 C357.64 1195.12 357.31 1196.11 356.97 1197.13 C355.65 1197.13 354.33 1197.13 352.97 1197.13 C352.97 1197.79 352.97 1198.45 352.97 1199.13 C351.65 1199.13 350.33 1199.13 348.97 1199.13 C348.64 1200.12 348.31 1201.11 347.97 1202.13 C344.97 1204.13 344.97 1204.13 340.97 1204.13 C340.64 1205.12 340.31 1206.11 339.97 1207.13 C338.22 1207.75 338.22 1207.75 335.97 1208.13 C335.07 1208.32 334.16 1208.5 333.22 1208.69 C332.48 1208.84 331.74 1208.98 330.97 1209.13 C330.64 1210.12 330.31 1211.11 329.97 1212.13 C326.65 1213.83 324.79 1214.13 320.97 1214.13 C320.64 1215.12 320.31 1216.11 319.97 1217.13 C316.65 1218.83 314.79 1219.13 310.97 1219.13 C310.97 1219.79 310.97 1220.45 310.97 1221.13 C310.13 1221.39 309.29 1221.66 308.42 1221.93 C307.32 1222.29 306.23 1222.64 305.1 1223 C304.01 1223.35 302.92 1223.7 301.79 1224.06 C298.89 1224.94 298.89 1224.94 296.97 1227.13 C295.65 1227.13 294.33 1227.13 292.97 1227.13 C292.97 1227.79 292.97 1228.45 292.97 1229.13 C291.32 1229.13 289.67 1229.13 287.97 1229.13 C287.64 1230.12 287.31 1231.11 286.97 1232.13 C284.99 1232.13 283.01 1232.13 280.97 1232.13 C280.97 1232.79 280.97 1233.45 280.97 1234.13 C279.32 1234.13 277.67 1234.13 275.97 1234.13 C275.64 1235.12 275.31 1236.11 274.97 1237.13 C270.9 1238.62 267.31 1239.39 262.97 1239.13 C262.97 1239.79 262.97 1240.45 262.97 1241.13 C259.02 1242.66 255.12 1244.13 251.04 1245.25 C248.12 1245.82 248.12 1245.82 246.97 1247.13 C244.97 1247.17 242.97 1247.17 240.97 1247.13 C240.97 1247.79 240.97 1248.45 240.97 1249.13 C239.33 1249.32 239.33 1249.32 237.66 1249.5 C233.9 1249.88 233.9 1249.88 230.97 1252.13 C227.59 1253.47 224.45 1254.25 220.85 1254.63 C217.45 1255.07 215.84 1255.5 212.97 1257.13 C209.56 1258.45 206.41 1259.25 202.79 1259.63 C198.91 1259.85 198.91 1259.85 195.97 1262.13 C193.97 1262.51 193.97 1262.51 191.85 1262.69 C188.2 1262.7 188.2 1262.7 186.97 1264.13 C185.12 1264.2 183.27 1264.21 181.41 1264.19 C179.89 1264.18 179.89 1264.18 178.34 1264.16 C177.56 1264.15 176.78 1264.14 175.97 1264.13 C175.64 1265.12 175.31 1266.11 174.97 1267.13 C174.34 1267.19 173.7 1267.25 173.04 1267.31 C172.21 1267.4 171.39 1267.48 170.54 1267.57 C169.71 1267.65 168.89 1267.73 168.04 1267.81 C165.99 1267.92 165.99 1267.92 164.97 1269.13 C162.62 1269.2 160.27 1269.21 157.91 1269.19 C156.62 1269.18 155.33 1269.17 154 1269.16 C153 1269.15 152 1269.14 150.97 1269.13 C150.64 1270.12 150.31 1271.11 149.97 1272.13 C149.14 1272.19 148.31 1272.25 147.45 1272.31 C146.37 1272.4 145.28 1272.48 144.16 1272.57 C143.08 1272.65 142 1272.73 140.89 1272.81 C137.91 1273.03 137.91 1273.03 134.97 1274.13 C131.26 1274.4 127.55 1274.58 123.83 1274.75 C120.01 1275 120.01 1275 116.59 1276.13 C111.33 1277.58 106.17 1277.55 100.74 1277.7 C99.92 1277.73 99.11 1277.76 98.27 1277.79 C97.54 1277.8 96.81 1277.82 96.06 1277.84 C93.93 1278.01 93.93 1278.01 92.11 1279.13 C89.75 1280.23 88.23 1280.38 85.64 1280.38 C84.78 1280.39 83.92 1280.39 83.04 1280.4 C82.1 1280.4 81.17 1280.39 80.2 1280.39 C79.21 1280.39 78.22 1280.4 77.2 1280.4 C73.93 1280.41 70.65 1280.4 67.38 1280.4 C65.1 1280.4 62.83 1280.4 60.55 1280.4 C55.79 1280.4 51.02 1280.4 46.26 1280.39 C40.14 1280.38 34.03 1280.39 27.91 1280.4 C23.22 1280.4 18.52 1280.4 13.83 1280.4 C11.57 1280.4 9.31 1280.4 7.06 1280.4 C3.91 1280.41 0.76 1280.4 -2.39 1280.39 C-3.32 1280.39 -4.26 1280.4 -5.22 1280.4 C-6.08 1280.39 -6.94 1280.39 -7.82 1280.38 C-8.56 1280.38 -9.31 1280.38 -10.08 1280.38 C-12.03 1280.13 -12.03 1280.13 -15.03 1278.13 C-17.13 1277.8 -17.13 1277.8 -19.45 1277.79 C-20.31 1277.76 -21.17 1277.73 -22.06 1277.7 C-22.95 1277.67 -23.85 1277.65 -24.78 1277.63 C-30.92 1277.48 -36.11 1276.94 -42.03 1275.13 C-44.17 1274.92 -46.31 1274.78 -48.46 1274.69 C-54 1274.36 -59.33 1273.66 -64.78 1272.63 C-65.47 1272.5 -66.16 1272.37 -66.87 1272.23 C-71.74 1271.27 -71.74 1271.27 -74.03 1270.13 C-77.24 1269.85 -80.45 1269.68 -83.67 1269.51 C-87.05 1269.13 -89.81 1268.21 -93.03 1267.13 C-96.09 1266.79 -99.14 1266.63 -102.22 1266.47 C-105 1266.13 -106.62 1265.5 -109.03 1264.13 C-111.96 1263.07 -114.78 1262.18 -117.84 1261.57 C-120.03 1261.13 -120.03 1261.13 -121.03 1260.13 C-122.35 1259.92 -123.69 1259.76 -125.03 1259.63 C-128.92 1259.24 -128.92 1259.24 -130.03 1258.13 C-133.32 1257.59 -136.62 1257.16 -139.92 1256.73 C-143.03 1256.13 -143.03 1256.13 -146.03 1254.13 C-152.37 1251.05 -158.46 1249.53 -165.46 1248.72 C-168.35 1248.06 -169.06 1247.23 -171.03 1245.13 C-172.92 1244.52 -172.92 1244.52 -175.03 1244.25 C-179.92 1243.32 -184.02 1241.38 -188.49 1239.24 C-191.32 1238 -193.95 1237.38 -197.03 1237.13 C-197.36 1236.14 -197.69 1235.15 -198.03 1234.13 C-199.06 1234.07 -199.06 1234.07 -200.11 1234.02 C-201.01 1233.95 -201.91 1233.88 -202.84 1233.82 C-203.73 1233.76 -204.63 1233.7 -205.55 1233.64 C-208.03 1233.13 -208.03 1233.13 -209.44 1231.71 C-212.46 1228.7 -217.07 1228.27 -221.09 1227.19 C-224.03 1226.13 -224.03 1226.13 -226.03 1223.13 C-228.61 1222.88 -228.61 1222.88 -231.03 1223.13 C-231.25 1222.49 -231.48 1221.85 -231.71 1221.19 C-232.85 1218.9 -232.85 1218.9 -235.34 1218.5 C-236.67 1218.32 -236.67 1218.32 -238.03 1218.13 C-239.71 1217.5 -241.38 1216.84 -243.03 1216.13 C-243.03 1215.47 -243.03 1214.81 -243.03 1214.13 C-244.68 1213.8 -246.33 1213.47 -248.03 1213.13 C-248.03 1212.47 -248.03 1211.81 -248.03 1211.13 C-249.35 1211.46 -250.67 1211.79 -252.03 1212.13 C-252.36 1211.14 -252.69 1210.15 -253.03 1209.13 C-254.68 1208.8 -256.33 1208.47 -258.03 1208.13 C-258.03 1207.47 -258.03 1206.81 -258.03 1206.13 C-259.35 1206.46 -260.67 1206.79 -262.03 1207.13 C-262.36 1206.14 -262.69 1205.15 -263.03 1204.13 C-263.75 1204.01 -264.47 1203.88 -265.21 1203.75 C-267.98 1203.14 -270.42 1202.24 -273.03 1201.13 C-273.03 1200.47 -273.03 1199.81 -273.03 1199.13 C-274.48 1198.73 -274.48 1198.73 -275.96 1198.32 C-277.48 1197.73 -277.48 1197.73 -279.03 1197.13 C-279.36 1196.14 -279.69 1195.15 -280.03 1194.13 C-281.36 1193.94 -281.36 1193.94 -282.71 1193.75 C-285.75 1193.18 -288.25 1192.48 -291.03 1191.13 C-291.36 1190.47 -291.69 1189.81 -292.03 1189.13 C-293.88 1188.08 -293.88 1188.08 -296.03 1187.13 C-299.92 1185.35 -299.92 1185.35 -301.03 1183.13 C-302.66 1182.16 -304.34 1181.25 -306.03 1180.38 C-313.94 1176.15 -320.99 1171.22 -328.02 1165.67 C-330.93 1163.44 -333.93 1161.66 -337.21 1160.07 C-339.03 1159.13 -339.03 1159.13 -341.03 1157.13 C-341.69 1156.8 -342.35 1156.47 -343.03 1156.13 C-343.03 1155.47 -343.03 1154.81 -343.03 1154.13 C-343.58 1153.88 -344.14 1153.63 -344.71 1153.38 C-348.4 1151.39 -351.44 1148.62 -354.65 1145.94 C-356.97 1143.97 -356.97 1143.97 -360.03 1143.13 C-360.03 1142.47 -360.03 1141.81 -360.03 1141.13 C-361.08 1140.53 -362.13 1139.93 -363.21 1139.32 C-363.85 1138.95 -364.48 1138.58 -365.14 1138.21 C-366.73 1137.3 -368.34 1136.43 -369.96 1135.57 C-370.64 1135.09 -371.32 1134.62 -372.03 1134.13 C-372.03 1133.14 -372.03 1132.15 -372.03 1131.13 C-372.69 1131.13 -373.35 1131.13 -374.03 1131.13 C-374.03 1130.47 -374.03 1129.81 -374.03 1129.13 C-375.02 1129.13 -376.01 1129.13 -377.03 1129.13 C-377.03 1128.47 -377.03 1127.81 -377.03 1127.13 C-377.61 1126.86 -378.19 1126.59 -378.8 1126.32 C-381.05 1125.12 -382.79 1123.8 -384.71 1122.13 C-385.32 1121.61 -385.92 1121.1 -386.54 1120.57 C-388.03 1119.13 -388.03 1119.13 -389.03 1117.13 C-390.36 1116.46 -391.69 1115.79 -393.03 1115.13 C-394.48 1114.01 -395.89 1112.84 -397.28 1111.63 C-397.98 1111.02 -398.69 1110.41 -399.42 1109.79 C-401.03 1108.13 -401.03 1108.13 -401.03 1106.13 C-402.02 1105.8 -403.01 1105.47 -404.03 1105.13 C-404.03 1104.47 -404.03 1103.81 -404.03 1103.13 C-404.69 1103.13 -405.35 1103.13 -406.03 1103.13 C-407.65 1101.75 -407.65 1101.75 -409.03 1100.13 C-409.03 1099.47 -409.03 1098.81 -409.03 1098.13 C-409.99 1097.73 -409.99 1097.73 -410.96 1097.32 C-413.03 1096.13 -413.03 1096.13 -414.03 1093.13 C-414.69 1092.8 -415.35 1092.47 -416.03 1092.13 C-417.02 1091.47 -418.01 1090.81 -419.03 1090.13 C-419.03 1089.47 -419.03 1088.81 -419.03 1088.13 C-419.99 1087.73 -419.99 1087.73 -420.96 1087.32 C-423.03 1086.13 -423.03 1086.13 -424.03 1083.13 C-424.69 1083.13 -425.35 1083.13 -426.03 1083.13 C-427.37 1081.77 -427.37 1081.77 -428.96 1079.82 C-432.96 1075.09 -437.32 1070.84 -441.77 1066.55 C-444.03 1064.13 -444.03 1064.13 -445.03 1061.13 C-445.68 1059.79 -446.34 1058.45 -447.03 1057.13 C-447.69 1057.13 -448.35 1057.13 -449.03 1057.13 C-449.03 1056.14 -449.03 1055.15 -449.03 1054.13 C-450.02 1054.13 -451.01 1054.13 -452.03 1054.13 C-452.03 1053.47 -452.03 1052.81 -452.03 1052.13 C-452.69 1052.13 -453.35 1052.13 -454.03 1052.13 C-454.03 1051.14 -454.03 1050.15 -454.03 1049.13 C-454.69 1049.13 -455.35 1049.13 -456.03 1049.13 C-459.03 1045.67 -459.03 1045.67 -459.03 1043.13 C-459.69 1043.13 -460.35 1043.13 -461.03 1043.13 C-466.03 1037.65 -466.03 1037.65 -466.03 1035.13 C-467.02 1034.8 -468.01 1034.47 -469.03 1034.13 C-469.4 1032.81 -469.73 1031.47 -470.03 1030.13 C-470.69 1029.8 -471.35 1029.47 -472.03 1029.13 C-472.03 1028.47 -472.03 1027.81 -472.03 1027.13 C-472.69 1027.13 -473.35 1027.13 -474.03 1027.13 C-474.03 1026.14 -474.03 1025.15 -474.03 1024.13 C-474.69 1024.13 -475.35 1024.13 -476.03 1024.13 C-478.2 1021.17 -479.86 1018.62 -481.03 1015.13 C-481.69 1015.13 -482.35 1015.13 -483.03 1015.13 C-483.36 1013.48 -483.69 1011.83 -484.03 1010.13 C-484.69 1010.13 -485.35 1010.13 -486.03 1010.13 C-486.52 1008.64 -486.52 1008.64 -487.03 1007.13 C-487.69 1006.8 -488.35 1006.47 -489.03 1006.13 C-490.58 1003.77 -491.92 1001.32 -493.26 998.83 C-493.7 998.02 -494.14 997.21 -494.59 996.38 C-495.21 995.21 -495.21 995.21 -495.84 994.02 C-496.89 991.98 -496.89 991.98 -499.03 991.13 C-499.03 989.81 -499.03 988.49 -499.03 987.13 C-499.69 986.8 -500.35 986.47 -501.03 986.13 C-503.81 984.74 -503.92 982.97 -505.03 980.13 C-505.69 979.47 -506.35 978.81 -507.03 978.13 C-507.43 976.74 -507.43 976.74 -507.84 975.32 C-509.24 971.57 -511.19 969.89 -514.03 967.13 C-515.21 964.57 -515.21 964.57 -516.03 962.13 C-516.38 961.43 -516.73 960.73 -517.09 960 C-518.03 958.13 -518.03 958.13 -519.03 955.13 C-519.69 954.8 -520.35 954.47 -521.03 954.13 C-523.77 950.07 -525.03 947.01 -525.03 942.13 C-526.02 942.13 -527.01 942.13 -528.03 942.13 C-529.02 939.16 -530.01 936.19 -531.03 933.13 C-531.69 933.13 -532.35 933.13 -533.03 933.13 C-532.9 932.05 -532.9 932.05 -532.78 930.94 C-533.1 927.28 -534.69 925.9 -537.03 923.13 C-537.59 921.19 -537.59 921.19 -538.03 919.13 C-538.99 917.11 -539.99 915.11 -541.03 913.13 C-541.69 913.13 -542.35 913.13 -543.03 913.13 C-543.36 910.49 -543.69 907.85 -544.03 905.13 C-544.69 905.13 -545.35 905.13 -546.03 905.13 C-547.02 901.83 -548.01 898.53 -549.03 895.13 C-549.69 895.13 -550.35 895.13 -551.03 895.13 C-551.03 893.48 -551.03 891.83 -551.03 890.13 C-551.69 890.13 -552.35 890.13 -553.03 890.13 C-554.2 886.15 -555.28 882.21 -556.03 878.13 C-556.69 878.13 -557.35 878.13 -558.03 878.13 C-558.21 876.71 -558.21 876.71 -558.4 875.25 C-558.74 872.04 -558.74 872.04 -561.03 870.13 C-561.15 867.5 -561.15 867.5 -561.03 865.13 C-561.69 865.13 -562.35 865.13 -563.03 865.13 C-563.21 863.74 -563.21 863.74 -563.4 862.32 C-563.84 858.99 -563.84 858.99 -566.03 856.13 C-566.39 854.47 -566.72 852.8 -567.03 851.13 C-568.01 847.2 -569.22 843.64 -570.96 840 C-573.19 835.19 -574.2 830.28 -575.3 825.11 C-576.13 821.72 -577.24 819.1 -579.03 816.13 C-578.37 816.13 -577.71 816.13 -577.03 816.13 C-577.67 815.3 -578.3 814.48 -578.96 813.63 C-581.01 810.57 -581.52 807.9 -581.81 804.22 C-582.04 802.02 -582.51 800.01 -583.09 797.88 C-584.03 794.13 -584.03 794.13 -584.03 790.13 C-584.69 790.13 -585.35 790.13 -586.03 790.13 C-586.15 788.95 -586.27 787.78 -586.4 786.57 C-586.74 783.74 -587.25 781.39 -588.09 778.63 C-589.18 774.57 -589.17 771.31 -589.03 767.13 C-589.69 766.8 -590.35 766.47 -591.03 766.13 C-591.03 764.81 -591.03 763.49 -591.03 762.13 C-591.3 760.6 -591.61 759.08 -591.96 757.57 C-592.22 756.42 -592.22 756.42 -592.49 755.25 C-592.93 753.52 -593.46 751.82 -594.03 750.13 C-594.25 748.65 -594.43 747.17 -594.59 745.69 C-594.67 744.93 -594.76 744.17 -594.84 743.38 C-595.01 741.3 -595.03 739.21 -595.03 737.13 C-595.5 735.51 -595.5 735.51 -595.99 733.86 C-597.08 729.95 -597.4 726.43 -597.59 722.38 C-597.81 717.16 -597.81 717.16 -599.03 712.13 C-599.16 710.54 -599.25 708.94 -599.31 707.35 C-599.34 706.42 -599.38 705.5 -599.42 704.55 C-599.49 702.6 -599.56 700.66 -599.63 698.71 C-599.67 697.79 -599.71 696.86 -599.74 695.91 C-599.78 695.07 -599.81 694.22 -599.84 693.35 C-599.95 690.96 -599.95 690.96 -601.03 688.13 C-601.13 685.11 -601.17 682.11 -601.17 679.09 C-601.17 678.16 -601.18 677.24 -601.18 676.28 C-601.19 673.22 -601.19 670.15 -601.19 667.08 C-601.2 664.95 -601.2 662.82 -601.2 660.69 C-601.21 656.22 -601.21 651.74 -601.21 647.27 C-601.21 641.55 -601.22 635.82 -601.24 630.1 C-601.25 625.7 -601.26 621.29 -601.25 616.89 C-601.26 614.78 -601.26 612.67 -601.27 610.56 C-601.28 607.6 -601.28 604.64 -601.27 601.69 C-601.27 600.82 -601.28 599.95 -601.29 599.06 C-601.26 594.03 -600.64 589.9 -599.03 585.13 C-599.69 584.8 -600.35 584.47 -601.03 584.13 C-600.72 580.88 -600.4 577.63 -600.09 574.38 C-599.96 573 -599.96 573 -599.82 571.59 C-599.74 570.7 -599.65 569.81 -599.56 568.9 C-599.48 568.08 -599.4 567.26 -599.32 566.42 C-599.04 564.26 -598.56 562.24 -598.03 560.13 C-597.76 556.54 -597.58 552.94 -597.41 549.34 C-597.03 546.13 -597.03 546.13 -595.03 543.13 C-594.78 541.05 -594.62 538.97 -594.53 536.88 C-594.22 531.99 -593.47 527.82 -592.03 523.13 C-591.71 520.77 -591.47 518.42 -591.27 516.05 C-591.03 514.13 -591.03 514.13 -590.03 512.13 C-589.8 510.16 -589.57 508.18 -589.34 506.21 C-588.91 503.39 -587.94 500.82 -587.03 498.13 C-586.69 495.8 -586.35 493.46 -586.03 491.13 C-585.13 487.74 -584.14 484.44 -582.96 481.13 C-581.92 478.11 -581.92 478.11 -581.59 474.75 C-581.05 471.25 -580.09 468.51 -578.79 465.25 C-577.7 462.23 -577.08 459.16 -576.46 456.01 C-576.03 454.13 -576.03 454.13 -575.03 452.13 C-574.41 449.95 -573.81 447.76 -573.21 445.57 C-571.79 440.5 -570.14 435.81 -567.89 431.06 C-566.6 428.17 -565.85 425.18 -565.03 422.13 C-563.72 418.12 -562.38 414.12 -561.03 410.13 C-560.37 410.13 -559.71 410.13 -559.03 410.13 C-559.07 409.18 -559.11 408.23 -559.15 407.25 C-559.03 404.13 -559.03 404.13 -557.03 402.13 C-556.2 400.31 -556.2 400.31 -555.52 398.22 C-555.12 397.07 -555.12 397.07 -554.72 395.91 C-554.45 395.12 -554.18 394.32 -553.9 393.5 C-553.62 392.7 -553.35 391.9 -553.06 391.07 C-552.38 389.09 -551.7 387.11 -551.03 385.13 C-550.37 385.13 -549.71 385.13 -549.03 385.13 C-548.9 384.41 -548.78 383.69 -548.65 382.94 C-548.04 380.17 -547.14 377.73 -546.03 375.13 C-545.37 375.13 -544.71 375.13 -544.03 375.13 C-544.07 374.18 -544.11 373.23 -544.15 372.25 C-544.03 369.13 -544.03 369.13 -542.03 367.13 C-541.38 365.06 -541.38 365.06 -541.03 363.13 C-540.37 363.13 -539.71 363.13 -539.03 363.13 C-538.84 362.45 -538.66 361.78 -538.48 361.08 C-538.22 360.19 -537.97 359.3 -537.71 358.38 C-537.47 357.5 -537.23 356.62 -536.98 355.71 C-536 353.05 -534.77 351.34 -533.03 349.13 C-531.98 346.82 -530.98 344.48 -530.03 342.13 C-529.63 341.16 -529.24 340.19 -528.84 339.19 C-528.57 338.51 -528.3 337.83 -528.03 337.13 C-527.37 337.13 -526.71 337.13 -526.03 337.13 C-525.92 336.37 -525.82 335.6 -525.71 334.82 C-524.96 331.86 -524.16 331.17 -522.03 329.13 C-521.31 327.03 -521.31 327.03 -521.03 325.13 C-520.37 325.13 -519.71 325.13 -519.03 325.13 C-518.96 324.47 -518.9 323.81 -518.84 323.13 C-517.89 319.61 -516.28 317.11 -514.28 314.09 C-513.05 312.16 -512.02 310.2 -511.03 308.13 C-510.37 308.13 -509.71 308.13 -509.03 308.13 C-508.76 307 -508.49 305.86 -508.21 304.69 C-507.82 303.52 -507.43 302.34 -507.03 301.13 C-506.04 300.8 -505.05 300.47 -504.03 300.13 C-503.92 299.37 -503.82 298.6 -503.71 297.82 C-502.95 294.84 -502.18 294.19 -500.03 292.13 C-499.72 291.28 -499.41 290.44 -499.09 289.57 C-498.03 287.13 -498.03 287.13 -495.96 286.13 C-495.32 285.8 -494.68 285.47 -494.03 285.13 C-493.64 283.47 -493.31 281.8 -493.03 280.13 C-492.05 279.11 -491.04 278.11 -490.03 277.13 C-488.6 274.84 -487.32 272.5 -486.03 270.13 C-485.37 270.13 -484.71 270.13 -484.03 270.13 C-483.8 269.24 -483.57 268.36 -483.34 267.44 C-481.83 263.64 -479.93 261.97 -477.03 259.13 C-476.3 257.92 -475.62 256.69 -474.96 255.44 C-472.92 251.96 -472.35 251.79 -469.03 250.13 C-468.76 249.24 -468.49 248.36 -468.21 247.44 C-466.79 243.47 -464.83 241.8 -461.81 238.97 C-460.06 237.16 -458.94 235.5 -457.71 233.32 C-455.01 228.68 -451.31 225.27 -447.43 221.62 C-444.95 219.21 -444.95 219.21 -443.21 216.33 C-440.95 213.02 -438.43 210.25 -435.6 207.45 C-434.81 206.65 -434.81 206.65 -434 205.83 C-432.26 204.09 -430.52 202.35 -428.78 200.62 C-427.56 199.4 -426.35 198.18 -425.13 196.97 C-422.59 194.42 -420.05 191.88 -417.5 189.34 C-414.24 186.09 -410.99 182.84 -407.74 179.58 C-405.24 177.07 -402.73 174.56 -400.21 172.05 C-399.01 170.85 -397.82 169.65 -396.62 168.45 C-394.94 166.77 -393.26 165.1 -391.58 163.42 C-391.09 162.93 -390.6 162.44 -390.09 161.93 C-387.27 159.14 -384.46 157.09 -381.03 155.13 C-379.21 153.38 -377.45 151.58 -375.71 149.75 C-372.03 145.94 -368.43 142.84 -363.8 140.24 C-361.28 138.66 -359.42 136.62 -357.39 134.47 C-355.5 132.62 -353.3 131.47 -351.03 130.13 C-350.2 129.28 -349.38 128.44 -348.53 127.57 C-345.97 125.08 -344.26 124.42 -341.03 123.13 C-340.2 122.28 -339.38 121.44 -338.53 120.57 C-335.88 117.99 -334.63 117.44 -331.03 117.13 C-330.7 116.14 -330.37 115.15 -330.03 114.13 C-328.28 112.81 -328.28 112.81 -326.15 111.57 C-325.45 111.15 -324.75 110.74 -324.03 110.31 C-323.37 109.92 -322.71 109.53 -322.03 109.13 C-320.54 108.14 -320.54 108.14 -319.03 107.13 C-318.04 107.13 -317.05 107.13 -316.03 107.13 C-316.03 106.47 -316.03 105.81 -316.03 105.13 C-313.12 103.09 -311.62 102.13 -308.03 102.13 C-307.69 101.17 -307.69 101.17 -307.34 100.19 C-306.03 98.13 -306.03 98.13 -303.4 97.38 C-302.62 97.3 -301.83 97.21 -301.03 97.13 C-301.03 96.47 -301.03 95.81 -301.03 95.13 C-295.28 92.13 -295.28 92.13 -293.03 92.13 C-293.03 91.47 -293.03 90.81 -293.03 90.13 C-279.31 82.13 -279.31 82.13 -276.03 82.13 C-276.03 81.47 -276.03 80.81 -276.03 80.13 C-274.91 79.73 -274.91 79.73 -273.78 79.32 C-271.07 78.3 -271.07 78.3 -269.28 76.69 C-265.85 74.31 -261.99 73.32 -258.03 72.13 C-258.03 71.47 -258.03 70.81 -258.03 70.13 C-257.47 69.94 -256.92 69.74 -256.35 69.54 C-255.62 69.28 -254.9 69.02 -254.15 68.75 C-253.43 68.5 -252.71 68.24 -251.97 67.98 C-249.84 67.19 -249.84 67.19 -248.03 65.13 C-246.01 64.29 -243.97 63.61 -241.9 62.91 C-239.83 62.19 -239.83 62.19 -238.03 60.13 C-236.22 59.28 -236.22 59.28 -234.15 58.5 C-233.13 58.11 -233.13 58.11 -232.1 57.72 C-230.03 57.13 -230.03 57.13 -226.03 57.13 C-226.03 56.47 -226.03 55.81 -226.03 55.13 C-221.08 53.64 -221.08 53.64 -216.03 52.13 C-216.03 51.47 -216.03 50.81 -216.03 50.13 C-211.4 47.91 -208.26 46.75 -203.03 47.13 C-203.03 46.47 -203.03 45.81 -203.03 45.13 C-201.78 44.62 -200.53 44.12 -199.28 43.63 C-198.58 43.35 -197.88 43.07 -197.17 42.79 C-195.03 42.13 -195.03 42.13 -191.03 42.13 C-191.03 41.47 -191.03 40.81 -191.03 40.13 C-186.46 37.95 -181.91 36.48 -177.03 35.13 C-173.39 34.12 -170 33.12 -166.53 31.63 C-160.88 29.21 -154.94 27.77 -149.03 26.13 C-144.13 24.71 -139.28 23.23 -134.46 21.57 C-129.15 19.78 -123.77 18.66 -118.27 17.6 C-117.37 17.42 -116.46 17.25 -115.53 17.07 C-114.69 16.91 -113.86 16.75 -112.99 16.59 C-111.04 16.31 -111.04 16.31 -110.03 15.13 C-106.93 14.55 -103.83 14.1 -100.71 13.63 C-98.12 13.41 -98.12 13.41 -97.03 12.13 C-95.34 11.9 -93.65 11.72 -91.96 11.57 C-91.04 11.48 -90.13 11.4 -89.18 11.31 C-88.47 11.25 -87.76 11.19 -87.03 11.13 C-87.03 10.8 -87.03 10.47 -87.03 10.13 C-86.05 10 -85.07 9.86 -84.07 9.73 C-82.8 9.55 -81.52 9.37 -80.21 9.19 C-78.95 9.02 -77.68 8.84 -76.38 8.66 C-73.04 8.23 -73.04 8.23 -70.03 7.13 C-66.97 6.86 -63.91 6.68 -60.84 6.51 C-57.82 6.31 -57.82 6.31 -55.03 4.13 C-53.03 3.81 -53.03 3.81 -50.8 3.72 C-49.99 3.68 -49.19 3.64 -48.36 3.6 C-47.53 3.57 -46.7 3.54 -45.84 3.5 C-44.99 3.47 -44.15 3.43 -43.28 3.39 C-41.19 3.29 -39.11 3.21 -37.03 3.13 C-37.03 2.8 -37.03 2.47 -37.03 2.13 C-36.28 2.1 -35.54 2.08 -34.78 2.05 C-31.42 1.94 -28.07 1.81 -24.71 1.69 C-22.96 1.63 -22.96 1.63 -21.18 1.57 C-20.06 1.53 -18.94 1.49 -17.79 1.45 C-16.76 1.41 -15.72 1.37 -14.66 1.33 C-9.69 0.95 -5.1 -0.01 0 0 Z M571.97 991.13 C572.97 993.13 572.97 993.13 572.97 993.13 Z M568.97 994.13 C569.3 994.79 569.63 995.45 569.97 996.13 C570.3 995.47 570.63 994.81 570.97 994.13 C570.31 994.13 569.65 994.13 568.97 994.13 Z M563.97 1002.13 C564.3 1003.12 564.63 1004.11 564.97 1005.13 C565.3 1004.14 565.63 1003.15 565.97 1002.13 C565.31 1002.13 564.65 1002.13 563.97 1002.13 Z M556.97 1012.13 C557.63 1012.79 558.29 1013.45 558.97 1014.13 C558.97 1013.47 558.97 1012.81 558.97 1012.13 C558.31 1012.13 557.65 1012.13 556.97 1012.13 Z M543.97 1029.13 C544.97 1031.13 544.97 1031.13 544.97 1031.13 Z M532.97 1044.13 C533.97 1046.13 533.97 1046.13 533.97 1046.13 Z M522.97 1055.13 C522.97 1058.13 522.97 1058.13 522.97 1058.13 Z M518.97 1059.13 C518.31 1060.45 517.65 1061.77 516.97 1063.13 C517.96 1062.47 518.95 1061.81 519.97 1061.13 C519.64 1060.47 519.31 1059.81 518.97 1059.13 Z M458.97 1120.13 C459.97 1122.13 459.97 1122.13 459.97 1122.13 Z M447.97 1128.13 C447.64 1128.79 447.31 1129.45 446.97 1130.13 C447.63 1130.13 448.29 1130.13 448.97 1130.13 C448.64 1129.47 448.31 1128.81 447.97 1128.13 Z M445.97 1131.13 C445.64 1131.79 445.31 1132.45 444.97 1133.13 C445.63 1133.13 446.29 1133.13 446.97 1133.13 C446.64 1132.47 446.31 1131.81 445.97 1131.13 Z M440.97 1135.13 C441.97 1137.13 441.97 1137.13 441.97 1137.13 Z M433.97 1140.13 C434.3 1140.79 434.63 1141.45 434.97 1142.13 C435.63 1141.47 436.29 1140.81 436.97 1140.13 C435.98 1140.13 434.99 1140.13 433.97 1140.13 Z M430.97 1143.13 C431.97 1145.13 431.97 1145.13 431.97 1145.13 Z " fill="#6EAFDE" transform="translate(601.026123046875,-0.12939453125)"/>
<path d="M0 0 C17.87 8.22 34.37 19.15 51.1 29.43 C55.68 32.24 60.34 34.85 65.08 37.38 C68.85 39.47 72.51 41.73 76.19 44 C83.36 48.42 90.59 52.71 97.88 56.94 C107.81 62.71 117.69 68.58 127.53 74.51 C130.1 76.06 132.66 77.6 135.23 79.13 C136.09 79.65 136.96 80.17 137.85 80.7 C139.56 81.72 141.26 82.74 142.97 83.75 C146.64 85.93 150.25 88.13 153.76 90.57 C159.78 94.66 163.68 96.99 170.99 95.7 C171.98 95.47 172.98 95.24 174 95 C207.03 87.66 239.06 91.64 267.78 109.75 C282.59 119.85 294.38 131.71 305 146 C305.56 146.72 306.11 147.44 306.68 148.19 C311.09 153.92 315.06 159.94 319 166 C319.99 167.52 319.99 167.52 321.01 169.06 C325.57 176.23 329.3 183.53 332.81 191.25 C334.34 194.61 335.94 197.92 337.6 201.21 C356 238.13 356 238.13 356 249 C356.66 249 357.32 249 358 249 C359.44 257.14 359.44 257.14 357.69 260.56 C356 262 356 262 354 262 C353.94 262.72 353.88 263.44 353.81 264.19 C352.75 267.88 350.73 269.33 348 272 C346.52 274.28 345.27 276.6 344 279 C343.34 279 342.68 279 342 279 C341.94 279.72 341.88 280.44 341.81 281.19 C340.74 284.88 338.89 286.53 336 289 C335.34 289 334.68 289 334 289 C333.9 289.74 333.79 290.49 333.69 291.25 C332.95 294.2 332.05 295.78 330 298 C329.34 298 328.68 298 328 298 C328 298.66 328 299.32 328 300 C327.01 300.66 326.02 301.32 325 302 C324.59 302.89 324.17 303.77 323.75 304.69 C322.14 307.73 320.88 309.25 318.44 311.56 C315.68 314.18 314.02 316.25 313 320 C312.34 320 311.68 320 311 320 C310.67 320.99 310.34 321.98 310 323 C308.57 324.4 308.57 324.4 306.69 325.94 C302.88 329.18 299.25 332.56 295.69 336.06 C295.17 336.56 294.66 337.05 294.13 337.56 C290.88 340.78 288.94 343.89 287 348 C284.94 349.12 284.94 349.12 283 350 C282.69 350.66 282.38 351.32 282.06 352 C281 354 281 354 278.84 354.73 C274.88 356.5 272.44 359.23 269.46 362.32 C268.85 362.94 268.24 363.56 267.61 364.2 C265.67 366.16 263.74 368.14 261.81 370.12 C259.87 372.11 257.93 374.1 255.98 376.08 C254.77 377.31 253.57 378.54 252.37 379.78 C250.95 381.23 249.48 382.62 248 384 C247.34 384 246.68 384 246 384 C246 384.66 246 385.32 246 386 C244.68 386 243.36 386 242 386 C241.65 386.83 241.65 386.83 241.3 387.68 C239.64 390.64 237.57 392.77 235.19 395.19 C233.91 396.51 233.91 396.51 232.61 397.86 C229.92 400.07 228.41 400.69 225 401 C225 401.66 225 402.32 225 403 C220.4 407.76 214.93 411.14 209 414 C209 414.66 209 415.32 209 416 C207.68 416 206.36 416 205 416 C205 416.66 205 417.32 205 418 C201.05 421.61 196.95 424.05 192 426 C191.67 426.99 191.34 427.98 191 429 C188.67 429.67 186.33 430.33 184 431 C183.67 431.99 183.34 432.98 183 434 C181 434.67 179 435.33 177 436 C176.67 436.99 176.34 437.98 176 439 C174.68 439 173.36 439 172 439 C172 439.66 172 440.32 172 441 C170.32 442.29 170.32 442.29 168.12 443.62 C167.41 444.07 166.69 444.52 165.95 444.98 C164 446 164 446 162 446 C161.67 446.99 161.34 447.98 161 449 C159.68 449 158.36 449 157 449 C157 449.66 157 450.32 157 451 C155.35 451 153.7 451 152 451 C151.67 451.99 151.34 452.98 151 454 C148 456 148 456 144 456 C143.67 456.99 143.34 457.98 143 459 C141.68 459 140.36 459 139 459 C139 459.66 139 460.32 139 461 C137.68 461 136.36 461 135 461 C134.67 461.99 134.34 462.98 134 464 C131 466 131 466 127 466 C126.67 466.99 126.34 467.98 126 469 C124.25 469.62 124.25 469.62 122 470 C121.09 470.19 120.18 470.37 119.25 470.56 C118.51 470.71 117.76 470.85 117 471 C116.67 471.99 116.34 472.98 116 474 C112.68 475.71 110.82 476 107 476 C106.67 476.99 106.34 477.98 106 479 C102.68 480.71 100.82 481 97 481 C97 481.66 97 482.32 97 483 C96.16 483.27 95.31 483.53 94.45 483.8 C92.8 484.33 92.8 484.33 91.12 484.88 C90.03 485.22 88.94 485.57 87.82 485.93 C84.91 486.81 84.91 486.81 83 489 C81.68 489 80.36 489 79 489 C79 489.66 79 490.32 79 491 C77.35 491 75.7 491 74 491 C73.67 491.99 73.34 492.98 73 494 C71.02 494 69.04 494 67 494 C67 494.66 67 495.32 67 496 C65.35 496 63.7 496 62 496 C61.67 496.99 61.34 497.98 61 499 C56.93 500.49 53.33 501.26 49 501 C49 501.66 49 502.32 49 503 C45.05 504.53 41.15 506.01 37.06 507.12 C34.15 507.69 34.15 507.69 33 509 C31 509.04 29 509.04 27 509 C27 509.66 27 510.32 27 511 C25.91 511.12 24.81 511.25 23.69 511.38 C19.93 511.75 19.93 511.75 17 514 C13.62 515.34 10.47 516.12 6.88 516.5 C3.47 516.94 1.87 517.38 -1 519 C-4.42 520.32 -7.56 521.12 -11.19 521.5 C-15.06 521.72 -15.06 521.72 -18 524 C-20.01 524.38 -20.01 524.38 -22.12 524.56 C-25.77 524.57 -25.77 524.57 -27 526 C-28.85 526.07 -30.71 526.08 -32.56 526.06 C-34.08 526.05 -34.08 526.05 -35.63 526.04 C-36.8 526.02 -36.8 526.02 -38 526 C-38.33 526.99 -38.66 527.98 -39 529 C-39.64 529.06 -40.28 529.12 -40.93 529.18 C-41.76 529.27 -42.59 529.35 -43.44 529.44 C-44.26 529.52 -45.08 529.6 -45.93 529.68 C-47.99 529.79 -47.99 529.79 -49 531 C-51.35 531.07 -53.71 531.08 -56.06 531.06 C-57.35 531.05 -58.64 531.04 -59.97 531.04 C-61.47 531.02 -61.47 531.02 -63 531 C-63.33 531.99 -63.66 532.98 -64 534 C-64.83 534.06 -65.66 534.12 -66.52 534.18 C-67.61 534.27 -68.69 534.35 -69.81 534.44 C-70.89 534.52 -71.97 534.6 -73.08 534.68 C-76.06 534.9 -76.06 534.9 -79 536 C-82.71 536.27 -86.42 536.45 -90.14 536.62 C-93.97 536.87 -93.97 536.87 -97.38 538 C-102.64 539.45 -107.81 539.42 -113.24 539.57 C-114.46 539.61 -114.46 539.61 -115.7 539.66 C-116.43 539.67 -117.16 539.69 -117.91 539.71 C-120.04 539.88 -120.04 539.88 -121.86 541 C-124.22 542.1 -125.74 542.25 -128.33 542.25 C-129.19 542.26 -130.05 542.27 -130.94 542.27 C-131.87 542.27 -132.81 542.26 -133.77 542.26 C-135.26 542.26 -135.26 542.26 -136.77 542.27 C-140.05 542.28 -143.32 542.27 -146.6 542.27 C-148.87 542.27 -151.15 542.27 -153.42 542.27 C-158.19 542.27 -162.95 542.27 -167.72 542.26 C-173.83 542.25 -179.95 542.26 -186.06 542.27 C-190.76 542.28 -195.45 542.27 -200.15 542.27 C-202.4 542.27 -204.66 542.27 -206.92 542.27 C-210.06 542.28 -213.21 542.27 -216.36 542.26 C-217.3 542.26 -218.23 542.27 -219.2 542.27 C-220.48 542.26 -220.48 542.26 -221.79 542.25 C-222.54 542.25 -223.28 542.25 -224.05 542.25 C-226 542 -226 542 -229 540 C-231.11 539.67 -231.11 539.67 -233.42 539.66 C-234.28 539.63 -235.14 539.6 -236.03 539.57 C-236.93 539.54 -237.83 539.52 -238.75 539.5 C-244.89 539.35 -250.08 538.81 -256 537 C-258.14 536.79 -260.29 536.65 -262.44 536.56 C-267.98 536.24 -273.31 535.53 -278.75 534.5 C-279.44 534.37 -280.13 534.24 -280.85 534.1 C-285.71 533.14 -285.71 533.14 -288 532 C-291.21 531.72 -294.42 531.55 -297.64 531.38 C-301.02 531 -303.79 530.08 -307 529 C-310.07 528.66 -313.11 528.5 -316.2 528.34 C-318.97 528 -320.6 527.37 -323 526 C-325.93 524.94 -328.75 524.05 -331.81 523.44 C-334 523 -334 523 -335 522 C-336.33 521.79 -337.66 521.63 -339 521.5 C-342.89 521.11 -342.89 521.11 -344 520 C-347.29 519.46 -350.59 519.03 -353.9 518.6 C-357 518 -357 518 -360 516 C-366.35 512.92 -372.44 511.4 -379.43 510.59 C-382.32 509.93 -383.03 509.1 -385 507 C-386.9 506.39 -386.9 506.39 -389 506.12 C-393.89 505.19 -397.99 503.25 -402.47 501.11 C-405.29 499.87 -407.92 499.25 -411 499 C-411.33 498.01 -411.66 497.02 -412 496 C-412.69 495.96 -413.37 495.93 -414.08 495.89 C-415.43 495.79 -415.43 495.79 -416.81 495.69 C-417.71 495.63 -418.6 495.57 -419.52 495.51 C-422 495 -422 495 -423.41 493.58 C-426.43 490.57 -431.04 490.14 -435.07 489.06 C-438 488 -438 488 -440 485 C-442.58 484.75 -442.58 484.75 -445 485 C-445.23 484.36 -445.45 483.72 -445.69 483.06 C-446.82 480.77 -446.82 480.77 -449.31 480.38 C-450.2 480.25 -451.09 480.13 -452 480 C-453.68 479.37 -455.35 478.71 -457 478 C-457 477.34 -457 476.68 -457 476 C-458.65 475.67 -460.3 475.34 -462 475 C-462 474.34 -462 473.68 -462 473 C-463.32 473.33 -464.64 473.66 -466 474 C-466.33 473.01 -466.66 472.02 -467 471 C-468.65 470.67 -470.3 470.34 -472 470 C-472 469.34 -472 468.68 -472 468 C-473.32 468.33 -474.64 468.66 -476 469 C-476.33 468.01 -476.66 467.02 -477 466 C-477.72 465.88 -478.44 465.75 -479.19 465.62 C-481.96 465.01 -484.4 464.12 -487 463 C-487 462.34 -487 461.68 -487 461 C-487.97 460.73 -488.94 460.46 -489.94 460.19 C-490.95 459.8 -491.96 459.4 -493 459 C-493.33 458.01 -493.66 457.02 -494 456 C-494.89 455.88 -495.77 455.75 -496.69 455.62 C-499.73 455.05 -502.22 454.35 -505 453 C-505.33 452.34 -505.66 451.68 -506 451 C-507.85 449.95 -507.85 449.95 -510 449 C-513.89 447.22 -513.89 447.22 -515 445 C-516.64 444.03 -518.31 443.12 -520 442.25 C-527.92 438.02 -534.96 433.09 -542 427.54 C-544.9 425.31 -547.9 423.53 -551.19 421.94 C-553 421 -553 421 -555 419 C-555.66 418.67 -556.32 418.34 -557 418 C-557 417.34 -557 416.68 -557 416 C-557.56 415.75 -558.11 415.51 -558.69 415.25 C-562.38 413.26 -565.41 410.49 -568.62 407.81 C-570.95 405.84 -570.95 405.84 -574 405 C-574 404.34 -574 403.68 -574 403 C-575.05 402.4 -576.1 401.8 -577.19 401.19 C-578.14 400.64 -578.14 400.64 -579.11 400.08 C-580.7 399.17 -582.32 398.3 -583.94 397.44 C-584.96 396.73 -584.96 396.73 -586 396 C-586 395.01 -586 394.02 -586 393 C-586.66 393 -587.32 393 -588 393 C-588 392.34 -588 391.68 -588 391 C-588.99 391 -589.98 391 -591 391 C-591 390.34 -591 389.68 -591 389 C-591.58 388.73 -592.17 388.46 -592.77 388.19 C-595.02 386.99 -596.76 385.67 -598.69 384 C-599.29 383.48 -599.89 382.97 -600.51 382.44 C-602 381 -602 381 -603 379 C-604.33 378.33 -605.66 377.66 -607 377 C-608.45 375.88 -609.87 374.71 -611.25 373.5 C-611.96 372.89 -612.66 372.28 -613.39 371.66 C-615 370 -615 370 -615 368 C-615.99 367.67 -616.98 367.34 -618 367 C-618 366.34 -618 365.68 -618 365 C-618.66 365 -619.32 365 -620 365 C-621.62 363.62 -621.62 363.62 -623 362 C-623 361.34 -623 360.68 -623 360 C-623.64 359.73 -624.28 359.46 -624.94 359.19 C-627 358 -627 358 -628 355 C-628.66 354.67 -629.32 354.34 -630 354 C-630.99 353.34 -631.98 352.68 -633 352 C-633 351.34 -633 350.68 -633 350 C-633.64 349.73 -634.28 349.46 -634.94 349.19 C-637 348 -637 348 -638 345 C-638.66 345 -639.32 345 -640 345 C-641.34 343.64 -641.34 343.64 -642.94 341.69 C-646.93 336.96 -651.3 332.71 -655.74 328.42 C-658 326 -658 326 -659 323 C-659.65 321.66 -660.32 320.32 -661 319 C-661.66 319 -662.32 319 -663 319 C-663 318.01 -663 317.02 -663 316 C-663.99 316 -664.98 316 -666 316 C-666 315.34 -666 314.68 -666 314 C-666.66 314 -667.32 314 -668 314 C-668 313.01 -668 312.02 -668 311 C-668.66 311 -669.32 311 -670 311 C-673 307.54 -673 307.54 -673 305 C-673.66 305 -674.32 305 -675 305 C-680 299.52 -680 299.52 -680 297 C-680.99 296.67 -681.98 296.34 -683 296 C-683.37 294.68 -683.71 293.34 -684 292 C-684.66 291.67 -685.32 291.34 -686 291 C-686 290.34 -686 289.68 -686 289 C-686.66 289 -687.32 289 -688 289 C-688 288.01 -688 287.02 -688 286 C-688.66 286 -689.32 286 -690 286 C-692.17 283.04 -693.84 280.49 -695 277 C-695.66 277 -696.32 277 -697 277 C-697.33 275.35 -697.66 273.7 -698 272 C-698.66 272 -699.32 272 -700 272 C-700.5 270.51 -700.5 270.51 -701 269 C-701.66 268.67 -702.32 268.34 -703 268 C-704.03 266.35 -705.03 264.68 -706 263 C-707.11 261.48 -707.11 261.48 -708.25 259.94 C-710 257 -710 257 -709.77 255.25 C-708.72 252.18 -707.6 249.15 -706.44 246.12 C-704.6 241.29 -702.8 236.45 -701.07 231.58 C-697.46 221.42 -693.67 211.56 -688.91 201.88 C-687.91 199.82 -686.95 197.74 -686 195.66 C-682.78 188.65 -679.53 181.83 -675.41 175.3 C-673.93 172.88 -672.66 170.4 -671.38 167.88 C-661.05 148.79 -644.7 130.52 -627.81 117.12 C-627.24 116.67 -626.67 116.22 -626.08 115.75 C-622.24 112.78 -618.28 110.29 -614 108 C-613.4 107.68 -612.81 107.35 -612.19 107.02 C-584.01 91.99 -553.12 87.5 -521.9 95.54 C-519.63 96.09 -517.58 96.1 -515.25 96.06 C-514.45 96.05 -513.65 96.04 -512.83 96.04 C-512.22 96.02 -511.62 96.01 -511 96 C-511 95.34 -511 94.68 -511 94 C-510.36 93.66 -509.71 93.32 -509.05 92.97 C-503.98 90.25 -499.01 87.43 -494.12 84.38 C-488.61 80.95 -483.02 77.7 -477.38 74.5 C-468.8 69.63 -460.29 64.66 -451.81 59.62 C-450.13 58.63 -450.13 58.63 -448.41 57.61 C-440.3 52.79 -432.21 47.93 -424.12 43.06 C-420.5 40.88 -416.85 38.75 -413.19 36.62 C-408.85 34.11 -404.57 31.52 -400.31 28.88 C-396.67 26.62 -393.02 24.42 -389.25 22.38 C-386.26 20.75 -383.44 18.99 -380.62 17.06 C-376.53 14.28 -372.29 11.91 -367.91 9.59 C-363.72 7.3 -359.68 4.76 -355.63 2.22 C-353 1 -353 1 -350.97 0.95 C-347.93 2.57 -346.05 5.11 -343.94 7.75 C-342.96 8.94 -341.98 10.14 -341 11.33 C-340.25 12.25 -340.25 12.25 -339.49 13.19 C-337.64 15.44 -335.75 17.64 -333.86 19.85 C-327.68 27.06 -321.82 34.5 -316 42 C-315.37 42.8 -314.75 43.6 -314.11 44.43 C-312.4 46.61 -310.7 48.81 -309 51 C-308.28 51.93 -307.55 52.85 -306.81 53.8 C-300.23 62.27 -293.95 70.92 -287.7 79.63 C-285.98 82.03 -284.26 84.41 -282.53 86.8 C-281.96 87.59 -281.39 88.38 -280.8 89.19 C-279.73 90.67 -278.65 92.15 -277.58 93.64 C-268.73 105.86 -260.35 118.38 -252.01 130.96 C-250.75 132.87 -249.49 134.77 -248.22 136.67 C-238.22 151.71 -229.01 167.19 -220.22 182.97 C-219.81 183.71 -219.4 184.46 -218.97 185.22 C-218.23 186.57 -217.49 187.92 -216.75 189.27 C-215.1 192.27 -213.48 194.65 -211 197 C-208.96 191.15 -207.23 185.3 -205.81 179.27 C-205.52 178.09 -205.52 178.09 -205.23 176.87 C-204.63 174.37 -204.03 171.88 -203.44 169.38 C-202.84 166.87 -202.24 164.36 -201.63 161.85 C-201.26 160.3 -200.89 158.75 -200.52 157.2 C-200.35 156.49 -200.18 155.78 -200.01 155.05 C-199.86 154.43 -199.71 153.82 -199.56 153.19 C-198.77 150.11 -197.87 147.06 -197 144 C-182.81 144 -168.62 144 -154 144 C-149.46 161.02 -149.46 161.02 -147.75 168.71 C-147.36 170.38 -146.98 172.05 -146.6 173.73 C-146.01 176.3 -145.43 178.87 -144.85 181.44 C-144.29 183.97 -143.7 186.49 -143.12 189.02 C-142.95 189.79 -142.78 190.57 -142.61 191.36 C-141.59 195.99 -141.59 195.99 -138 199 C-137.9 198.46 -137.79 197.91 -137.68 197.36 C-134.65 186.91 -126.98 176.72 -121.42 167.38 C-119.89 164.81 -118.36 162.23 -116.83 159.64 C-115.76 157.85 -114.69 156.05 -113.62 154.25 C-113.13 153.4 -112.63 152.56 -112.11 151.69 C-109.64 147.54 -107.1 143.72 -104 140 C-103.05 138.36 -102.1 136.71 -101.17 135.05 C-96.27 126.46 -90.52 118.51 -84.64 110.57 C-79.93 104.22 -75.47 97.73 -71.12 91.12 C-64.41 81.03 -56.9 71.54 -49.44 62 C-45.91 57.47 -42.41 52.92 -38.94 48.34 C-33.67 41.38 -28.24 34.6 -22.55 27.98 C-19.4 24.3 -16.34 20.54 -13.28 16.78 C-11.61 14.75 -9.94 12.73 -8.25 10.72 C-7.57 9.9 -7.57 9.9 -6.86 9.06 C-5.57 7.52 -4.27 5.98 -2.97 4.43 C-1 2.18 -1 2.18 0 0 Z M355 256 C355.33 256.66 355.66 257.32 356 258 C356.33 257.34 356.66 256.68 357 256 C356.34 256 355.68 256 355 256 Z M350 264 C350.33 264.99 350.66 265.98 351 267 C351.33 266.01 351.66 265.02 352 264 C351.34 264 350.68 264 350 264 Z M343 274 C343.66 274.66 344.32 275.32 345 276 C345 275.34 345 274.68 345 274 C344.34 274 343.68 274 343 274 Z M330 291 C331 293 331 293 331 293 Z M319 306 C320 308 320 308 320 308 Z M309 317 C309 320 309 320 309 320 Z M305 321 C304.34 322.32 303.68 323.64 303 325 C303.99 324.34 304.98 323.68 306 323 C305.67 322.34 305.34 321.68 305 321 Z M245 382 C246 384 246 384 246 384 Z M234 390 C233.67 390.66 233.34 391.32 233 392 C233.66 392 234.32 392 235 392 C234.67 391.34 234.34 390.68 234 390 Z M232 393 C231.67 393.66 231.34 394.32 231 395 C231.66 395 232.32 395 233 395 C232.67 394.34 232.34 393.68 232 393 Z M227 397 C228 399 228 399 228 399 Z M220 402 C220.33 402.66 220.66 403.32 221 404 C221.66 403.34 222.32 402.68 223 402 C222.01 402 221.02 402 220 402 Z M217 405 C218 407 218 407 218 407 Z " fill="#273135" transform="translate(815,738)"/>
<path d="M0 0 C0.77 0.02 1.53 0.04 2.32 0.06 C36.55 1.06 70.47 7.31 103.2 17.26 C104.07 17.52 104.94 17.79 105.84 18.06 C107.6 18.61 109.33 19.2 111.06 19.83 C117.1 21.95 120.47 21.99 126.31 19.5 C138.71 14.82 151.55 11.88 164.44 8.88 C165.33 8.67 166.22 8.46 167.13 8.24 C189.69 3.04 212.77 0.68 235.88 0.06 C236.64 0.04 237.41 0.02 238.2 -0 C254.16 -0.42 254.16 -0.42 261.44 0.88 C263.78 3.22 263.72 3.74 263.86 6.92 C263.9 7.78 263.95 8.64 263.99 9.52 C264.03 10.47 264.07 11.43 264.11 12.41 C264.19 13.94 264.19 13.94 264.27 15.51 C264.38 17.77 264.48 20.04 264.59 22.31 C264.84 27.97 265.13 33.62 265.41 39.28 C265.51 41.39 265.62 43.5 265.72 45.62 C266.64 64.34 267.68 83.06 268.72 101.77 C269.01 106.86 269.28 111.95 269.56 117.04 C269.77 120.89 269.98 124.73 270.2 128.58 C270.3 130.39 270.4 132.21 270.5 134.02 C270.63 136.51 270.77 139.01 270.91 141.5 C270.95 142.24 270.99 142.97 271.03 143.74 C270.95 147.1 270.95 147.1 272.44 149.88 C274.07 150.03 275.71 150.13 277.35 150.19 C278.83 150.25 278.83 150.25 280.35 150.32 C281.39 150.36 282.43 150.4 283.5 150.44 C285.07 150.5 285.07 150.5 286.67 150.57 C289.26 150.67 291.85 150.78 294.44 150.88 C294.47 150.21 294.51 149.55 294.55 148.86 C295.05 141.81 296.39 135.43 298.5 128.69 C298.96 127.19 298.96 127.19 299.44 125.67 C305.4 107.11 314.54 90.17 332.44 80.88 C333.1 80.88 333.76 80.88 334.44 80.88 C336.1 90.75 336.83 100.29 336.81 110.31 C336.81 111.01 336.81 111.7 336.81 112.41 C336.68 142.86 329.19 176.88 309.44 200.88 C308.78 201.7 308.12 202.52 307.44 203.37 C303.13 208.5 298.16 214.04 291.26 215.26 C288.54 215.74 286.76 216.36 284.44 217.88 C282.26 221.55 281 225.42 279.74 229.49 C278.69 232.92 277.5 236.31 276.33 239.7 C276.1 240.39 275.86 241.08 275.62 241.79 C270.38 256.91 262.81 271.37 254.28 284.89 C253.67 285.87 253.06 286.86 252.44 287.88 C251.89 288.67 251.34 289.47 250.78 290.3 C248.77 295.67 249.58 300.47 250.17 306.1 C250.28 307.28 250.39 308.45 250.5 309.67 C250.74 312.15 250.98 314.64 251.24 317.12 C251.62 320.93 251.98 324.73 252.34 328.53 C252.57 330.95 252.81 333.37 253.04 335.79 C253.15 336.92 253.26 338.06 253.37 339.23 C253.54 340.82 253.54 340.82 253.7 342.45 C253.8 343.38 253.89 344.31 253.99 345.26 C254.46 348.01 255.31 350.33 256.44 352.88 C257.76 352.21 259.08 351.56 260.44 350.88 C261.26 351.89 261.26 351.89 262.09 352.93 C266.69 358.61 271.39 364.12 276.3 369.53 C278.86 372.34 281.38 375.18 283.86 378.06 C284.89 379.25 285.94 380.42 287.02 381.56 C290.46 385.34 290.46 385.34 290.38 387.67 C289 390.91 286.75 393.33 284.44 395.94 C283.43 397.1 282.42 398.27 281.41 399.44 C280.9 400.02 280.4 400.6 279.88 401.2 C277.85 403.55 275.89 405.96 273.94 408.38 C271.12 411.84 268.26 415.27 265.35 418.66 C260.57 424.24 256.04 429.94 251.67 435.86 C249.36 438.98 247 442.06 244.62 445.12 C236.33 455.87 228.12 466.68 220.44 477.88 C215.41 485.17 210.35 492.44 205.25 499.69 C204.76 500.38 204.28 501.07 203.77 501.79 C200.84 505.95 197.83 510.04 194.73 514.09 C193.16 516.26 191.85 518.55 190.56 520.9 C187.14 526.91 183.27 532.67 179.38 538.38 C176.63 542.46 174.32 546.72 172 551.06 C170.43 553.9 168.72 556.6 166.94 559.31 C163.87 564.05 161.32 568.92 158.86 573.99 C156.86 578.04 154.67 581.96 152.44 585.88 C150.53 585.18 150.53 585.18 148.44 583.88 C147.5 581.71 147.5 581.71 146.88 579 C146.64 577.98 146.4 576.97 146.15 575.92 C145.91 574.82 145.67 573.73 145.42 572.59 C145.03 570.91 145.03 570.91 144.63 569.19 C143.8 565.59 142.99 561.98 142.19 558.38 C141.63 555.94 141.07 553.51 140.51 551.08 C139.49 546.64 138.47 542.2 137.48 537.75 C137.27 536.86 137.07 535.96 136.87 535.04 C136.44 532.88 136.44 532.88 136.44 530.88 C122.25 531.21 108.06 531.53 93.44 531.88 C92.39 536.58 91.33 541.28 90.25 546.12 C88.11 555.64 85.95 565.15 83.62 574.62 C83.43 575.43 83.24 576.24 83.04 577.07 C82.19 580.47 81.4 582.93 79.44 585.88 C79.44 585.22 79.44 584.55 79.44 583.88 C78.45 583.54 77.46 583.22 76.44 582.88 C75.19 580.83 74.12 578.83 73.06 576.69 C59.03 549.36 41.79 523.42 24.15 498.32 C22 495.25 19.91 492.15 17.81 489.05 C11.7 480.03 5.33 471.27 -1.26 462.6 C-3.1 460.16 -4.9 457.67 -6.69 455.19 C-10.77 449.54 -15.02 444.04 -19.28 438.53 C-20.54 436.9 -21.79 435.26 -23.04 433.62 C-28.13 426.9 -33.43 420.4 -38.91 414 C-42.09 410.27 -45.19 406.47 -48.28 402.66 C-52.34 397.7 -56.45 392.79 -60.56 387.88 C-59.14 383.41 -56.7 380.55 -53.5 377.25 C-48.99 372.47 -44.77 367.54 -40.63 362.43 C-38.68 360.01 -36.7 357.62 -34.69 355.25 C-33.89 354.3 -33.89 354.3 -33.07 353.34 C-31.56 351.88 -31.56 351.88 -28.56 350.88 C-27.57 351.2 -26.58 351.54 -25.56 351.88 C-24.98 345.3 -24.42 338.72 -23.85 332.14 C-23.66 329.9 -23.47 327.67 -23.27 325.44 C-19.72 302.75 -19.72 302.75 -25.88 281.88 C-26.8 280.43 -27.72 278.99 -28.64 277.54 C-29.12 276.78 -29.6 276.03 -30.1 275.25 C-38.37 261.8 -44.28 247.14 -49.59 232.33 C-49.92 231.42 -50.25 230.52 -50.58 229.59 C-51.25 227.73 -51.9 225.87 -52.54 224.01 C-53.03 222.65 -53.03 222.65 -53.53 221.27 C-53.81 220.47 -54.09 219.66 -54.38 218.83 C-55.43 216.68 -55.43 216.68 -57.84 215.82 C-59.5 215.42 -61.17 215.04 -62.84 214.69 C-74.73 211.13 -83.01 198.01 -88.59 187.7 C-104.63 157.1 -114.3 116.87 -104.56 82.88 C-104.07 81.88 -104.07 81.88 -103.56 80.88 C-89.41 85.59 -81.98 99.33 -75.56 111.88 C-71.14 121.14 -68.9 130.97 -66.53 140.91 C-66.29 141.93 -66.05 142.94 -65.8 143.98 C-65.58 144.9 -65.37 145.82 -65.15 146.76 C-64.76 148.84 -64.76 148.84 -63.56 149.88 C-62 149.96 -60.44 149.98 -58.87 149.97 C-57.93 149.97 -56.98 149.97 -56.01 149.96 C-55.02 149.95 -54.02 149.95 -53 149.94 C-52 149.93 -51.01 149.93 -49.98 149.92 C-47.51 149.91 -45.03 149.9 -42.56 149.88 C-41.96 139.5 -41.37 129.12 -40.77 118.74 C-40.42 112.75 -40.08 106.76 -39.73 100.77 C-38.18 74.04 -38.18 74.04 -36.74 47.3 C-36.57 44.13 -36.4 40.96 -36.24 37.79 C-36 33.28 -35.77 28.78 -35.55 24.28 C-35.45 22.29 -35.34 20.3 -35.24 18.31 C-35.2 17.44 -35.16 16.57 -35.12 15.68 C-34.85 10.79 -34.24 6.49 -32.56 1.88 C-23.92 -2.45 -9.6 -0.26 0 0 Z " fill="#F3CFA0" transform="translate(524.5625,351.125)"/>
<path d="M0 0 C2.01 0.69 4.02 1.38 6.03 2.06 C7.48 2.55 8.92 3.05 10.37 3.54 C18.42 6.29 26.5 8.9 34.59 11.52 C53.34 17.58 72.03 23.79 90.72 30.03 C106.91 35.45 123.13 40.78 139.38 46.04 C153.81 50.71 168.19 55.56 182.52 60.53 C183.26 60.78 184 61.04 184.76 61.3 C186.72 61.98 188.67 62.66 190.63 63.34 C194.67 64.71 198.74 65.97 202.81 67.24 C210.77 69.71 218.7 72.29 226.61 74.9 C228.04 75.37 229.47 75.84 230.9 76.31 C233.91 77.3 236.92 78.29 239.92 79.28 C247.76 81.87 255.61 84.45 263.45 87.03 C264.22 87.28 265 87.54 265.8 87.8 C275.43 90.97 285.06 94.12 294.71 97.25 C295.69 97.57 296.67 97.89 297.68 98.22 C302.04 99.63 306.4 101.04 310.76 102.45 C315.26 103.9 319.76 105.38 324.25 106.88 C325.12 107.16 326 107.45 326.89 107.75 C329.63 108.65 332.36 109.57 335.09 110.5 C335.93 110.78 336.77 111.05 337.64 111.34 C342.21 112.91 345.64 114.53 349.25 117.88 C348.28 118.15 347.3 118.43 346.3 118.71 C335.2 121.9 324.25 125.48 313.31 129.18 C295.09 135.32 276.82 141.3 258.5 147.12 C239.66 153.12 220.86 159.26 202.12 165.57 C196.84 167.35 191.54 169.11 186.25 170.88 C186.13 183.29 186.04 195.7 185.99 208.12 C185.97 213.89 185.93 219.65 185.87 225.42 C185.82 231 185.79 236.59 185.78 242.17 C185.77 244.28 185.75 246.39 185.72 248.51 C185.55 262.26 186.99 274.51 190.69 287.77 C192.68 295.23 193.64 302.98 194.76 310.61 C195.1 312.9 195.47 315.19 195.84 317.47 C196.44 321.14 196.98 324.82 197.5 328.5 C197.79 330.22 197.79 330.22 198.09 331.97 C198.5 335.12 198.76 337.74 198.25 340.88 C195.99 343.68 193.4 345.2 190.25 346.88 C171.2 361.23 163.76 388.23 160.25 410.88 C156.63 410.93 153 410.97 149.38 411 C148.34 411.02 147.31 411.03 146.25 411.05 C145.26 411.06 144.27 411.06 143.26 411.07 C142.35 411.08 141.44 411.09 140.5 411.1 C138.25 410.88 138.25 410.88 136.25 408.88 C135.93 406.35 135.73 403.92 135.61 401.38 C135.57 400.6 135.52 399.83 135.48 399.03 C135.33 396.42 135.2 393.82 135.07 391.21 C134.97 389.38 134.86 387.54 134.76 385.7 C134.49 380.76 134.23 375.82 133.97 370.88 C133.71 365.79 133.43 360.7 133.15 355.62 C132.2 338.22 131.29 320.83 130.4 303.43 C130.3 301.36 130.19 299.29 130.08 297.21 C129.76 291.05 129.45 284.88 129.15 278.72 C129.04 276.58 128.94 274.45 128.83 272.31 C128.78 271.35 128.74 270.39 128.69 269.41 C128.88 265.31 128.88 265.31 127.25 261.88 C118.87 260.53 110.46 260.78 102 261 C100.83 261.03 100.83 261.03 99.64 261.06 C64.95 262.06 30.89 268.65 -2.39 278.26 C-3.3 278.52 -4.21 278.79 -5.15 279.06 C-7.74 279.83 -7.74 279.83 -10.1 280.85 C-16.52 283.48 -20.46 282.36 -26.81 279.94 C-28.76 279.26 -30.7 278.59 -32.65 277.92 C-33.65 277.58 -34.66 277.23 -35.69 276.88 C-44.54 273.98 -53.68 271.97 -62.75 269.88 C-63.98 269.59 -63.98 269.59 -65.24 269.29 C-87.77 264.12 -110.79 261.69 -133.88 261.06 C-134.99 261.03 -134.99 261.03 -136.14 261 C-151.9 259.79 -151.9 259.79 -166.75 262.88 C-168.22 268.73 -168.17 274.98 -168.49 280.99 C-168.59 282.82 -168.59 282.82 -168.69 284.68 C-168.84 287.32 -168.98 289.96 -169.12 292.6 C-169.35 296.79 -169.57 300.98 -169.8 305.17 C-170.17 311.8 -170.53 318.44 -170.88 325.08 C-171.52 336.93 -172.17 348.78 -172.81 360.63 C-173.04 364.78 -173.26 368.93 -173.49 373.08 C-173.66 376.3 -173.84 379.51 -174.01 382.72 C-174.07 383.85 -174.13 384.98 -174.19 386.14 C-174.51 391.97 -174.86 397.8 -175.23 403.63 C-175.31 404.8 -175.38 405.97 -175.46 407.18 C-175.75 409.88 -175.75 409.88 -176.75 410.88 C-180.22 411.13 -183.71 411.06 -187.19 411.06 C-188.17 411.07 -189.15 411.09 -190.16 411.1 C-191.56 411.1 -191.56 411.1 -193 411.11 C-193.86 411.11 -194.72 411.11 -195.61 411.12 C-197.75 410.88 -197.75 410.88 -199.75 408.88 C-200.43 406.68 -200.43 406.68 -201.05 403.96 C-201.28 402.96 -201.51 401.96 -201.75 400.93 C-202 399.86 -202.25 398.79 -202.5 397.69 C-206.67 380.42 -212.86 360.06 -226.75 347.88 C-228.56 346.8 -230.37 345.74 -232.19 344.69 C-236.59 341.7 -236.59 341.7 -237.27 338.23 C-236.97 329.26 -235.98 320.48 -234.62 311.62 C-234.51 310.89 -234.4 310.15 -234.29 309.39 C-231.63 291.77 -228.26 274.19 -221.73 257.55 C-219.86 252.45 -219.59 247.58 -219.56 242.19 C-219.55 241.44 -219.54 240.68 -219.53 239.9 C-219.51 237.41 -219.49 234.92 -219.48 232.43 C-219.47 231.15 -219.47 231.15 -219.46 229.85 C-219.43 225.34 -219.41 220.84 -219.4 216.34 C-219.39 212.61 -219.36 208.88 -219.32 205.15 C-219.27 200.65 -219.24 196.14 -219.24 191.64 C-219.23 189.92 -219.21 188.2 -219.19 186.48 C-219.16 184.09 -219.16 181.69 -219.17 179.3 C-219.15 178.59 -219.13 177.87 -219.12 177.14 C-219.09 174.93 -219.09 174.93 -219.75 171.88 C-223.22 169.07 -227.17 167.91 -231.39 166.52 C-232.05 166.3 -232.71 166.08 -233.38 165.86 C-235.59 165.13 -237.79 164.41 -240 163.69 C-241.59 163.16 -243.18 162.64 -244.77 162.11 C-249.15 160.67 -253.54 159.23 -257.93 157.8 C-260.8 156.86 -263.68 155.92 -266.55 154.98 C-284.89 148.97 -303.24 142.99 -321.59 137.02 C-324.42 136.1 -327.24 135.19 -330.07 134.27 C-331.89 133.68 -333.7 133.09 -335.52 132.5 C-347.02 128.76 -358.52 124.99 -369.97 121.09 C-373.87 119.77 -377.66 118.52 -381.75 117.88 C-378.53 114.11 -375.6 112.84 -370.93 111.32 C-370.24 111.1 -369.56 110.87 -368.85 110.64 C-366.57 109.89 -364.28 109.16 -361.99 108.42 C-360.35 107.89 -358.72 107.35 -357.09 106.82 C-352.67 105.38 -348.25 103.95 -343.83 102.52 C-339.19 101.02 -334.56 99.51 -329.93 98 C-323.25 95.82 -316.57 93.64 -309.89 91.47 C-298.41 87.75 -286.94 83.99 -275.47 80.21 C-274.67 79.95 -273.88 79.68 -273.05 79.41 C-269.89 78.37 -266.73 77.33 -263.57 76.29 C-255.26 73.55 -246.95 70.82 -238.64 68.09 C-237.93 67.85 -237.23 67.62 -236.5 67.39 C-223.71 63.18 -210.9 59.01 -198.08 54.86 C-186.21 51.02 -174.37 47.09 -162.53 43.13 C-149.78 38.86 -137 34.69 -124.21 30.55 C-111.64 26.48 -99.09 22.34 -86.57 18.14 C-72.44 13.41 -58.28 8.8 -44.11 4.24 C-42.51 3.72 -40.91 3.2 -39.31 2.69 C-38.55 2.44 -37.79 2.2 -37.01 1.95 C-32.8 0.58 -28.66 -0.9 -24.54 -2.5 C-15.46 -5.78 -8.78 -3.08 0 0 Z " fill="#3B4450" transform="translate(658.75,91.125)"/>
<path d="M0 0 C2.01 0.69 4.02 1.38 6.03 2.06 C7.48 2.55 8.92 3.05 10.37 3.54 C18.42 6.29 26.5 8.9 34.59 11.52 C53.34 17.58 72.03 23.79 90.72 30.03 C106.91 35.45 123.13 40.78 139.38 46.04 C153.81 50.71 168.19 55.56 182.52 60.53 C183.26 60.78 184 61.04 184.76 61.3 C186.72 61.98 188.67 62.66 190.63 63.34 C194.67 64.71 198.74 65.97 202.81 67.24 C210.77 69.71 218.7 72.29 226.61 74.9 C228.04 75.37 229.47 75.84 230.9 76.31 C233.91 77.3 236.92 78.29 239.92 79.28 C247.76 81.87 255.61 84.45 263.45 87.03 C264.22 87.28 265 87.54 265.8 87.8 C275.43 90.97 285.06 94.12 294.71 97.25 C295.69 97.57 296.67 97.89 297.68 98.22 C302.04 99.63 306.4 101.04 310.76 102.45 C315.26 103.9 319.76 105.38 324.25 106.88 C325.12 107.16 326 107.45 326.89 107.75 C329.63 108.65 332.36 109.57 335.09 110.5 C335.93 110.78 336.77 111.05 337.64 111.34 C342.21 112.91 345.64 114.53 349.25 117.88 C348.28 118.15 347.3 118.43 346.3 118.71 C335.2 121.9 324.25 125.48 313.31 129.18 C294.05 135.68 274.72 141.97 255.34 148.13 C240.01 153.01 224.71 157.99 209.47 163.16 C202.12 165.64 194.77 167.96 187.25 169.88 C185.58 165.49 184.99 161.81 184.94 157.12 C184.9 155.22 184.9 155.22 184.87 153.28 C184.83 150.63 184.8 147.98 184.77 145.33 C184.75 144.06 184.72 142.8 184.69 141.5 C184.68 140.35 184.66 139.19 184.65 138.01 C184.08 133.54 182.4 130.93 179.11 127.92 C171.87 122.65 164.35 118.6 156.26 114.82 C154.42 113.95 152.59 113.06 150.76 112.17 C123.21 99.3 93.07 92.75 63.17 88.32 C60.56 87.92 57.97 87.49 55.37 87.03 C-21.7 74 -114.71 80.62 -210.71 127.16 C-214.22 130.11 -215.59 131.73 -216.23 136.39 C-216.29 137.78 -216.34 139.17 -216.38 140.56 C-216.44 142.08 -216.51 143.59 -216.57 145.11 C-216.63 146.7 -216.69 148.29 -216.75 149.88 C-216.88 153.02 -217.03 156.17 -217.19 159.31 C-217.21 160.04 -217.24 160.77 -217.27 161.52 C-217.52 166.65 -217.52 166.65 -219.75 168.88 C-226.09 168.53 -231.98 166.36 -237.97 164.41 C-239.06 164.06 -240.14 163.71 -241.26 163.35 C-244.78 162.22 -248.3 161.08 -251.81 159.94 C-254.25 159.15 -256.68 158.36 -259.12 157.58 C-272.35 153.31 -285.56 148.99 -298.74 144.56 C-310.61 140.57 -322.52 136.7 -334.44 132.84 C-346.3 128.99 -358.16 125.12 -369.96 121.1 C-373.87 119.77 -377.66 118.52 -381.75 117.88 C-378.53 114.11 -375.6 112.84 -370.93 111.32 C-370.24 111.1 -369.56 110.87 -368.85 110.64 C-366.57 109.89 -364.28 109.16 -361.99 108.42 C-360.35 107.89 -358.72 107.35 -357.09 106.82 C-352.67 105.38 -348.25 103.95 -343.83 102.52 C-339.19 101.02 -334.56 99.51 -329.93 98 C-323.25 95.82 -316.57 93.64 -309.89 91.47 C-298.41 87.75 -286.94 83.99 -275.47 80.21 C-274.67 79.95 -273.88 79.68 -273.05 79.41 C-269.89 78.37 -266.73 77.33 -263.57 76.29 C-255.26 73.55 -246.95 70.82 -238.64 68.09 C-237.93 67.85 -237.23 67.62 -236.5 67.39 C-223.71 63.18 -210.9 59.01 -198.08 54.86 C-186.21 51.02 -174.37 47.09 -162.53 43.13 C-149.78 38.86 -137 34.69 -124.21 30.55 C-111.64 26.48 -99.09 22.34 -86.57 18.14 C-72.44 13.41 -58.28 8.8 -44.11 4.24 C-42.51 3.72 -40.91 3.2 -39.31 2.69 C-38.55 2.44 -37.79 2.2 -37.01 1.95 C-32.8 0.58 -28.66 -0.9 -24.54 -2.5 C-15.46 -5.78 -8.78 -3.08 0 0 Z " fill="#2F3641" transform="translate(658.75,91.125)"/>
<path d="M0 0 C5.98 2.55 11.34 6.5 16.56 10.31 C23.61 15.37 30.77 20.22 38 25 C45.58 30.02 53.08 35.13 60.48 40.42 C67.65 45.52 74.99 50.34 82.32 55.2 C88.44 59.26 94.47 63.4 100.42 67.71 C104.67 70.78 109.01 73.7 113.39 76.59 C116.41 78.59 119.4 80.64 122.39 82.69 C123.37 83.36 124.34 84.02 125.34 84.71 C127.29 86.05 129.23 87.38 131.17 88.72 C136.01 92.04 140.85 95.19 146 98 C146.73 97.36 146.73 97.36 147.48 96.71 C154.97 90.45 163.08 85.31 171.27 80.05 C176.28 76.83 181.16 73.47 186 70 C191.63 66.01 197.31 62.12 203.06 58.31 C208.7 54.58 214.24 50.73 219.75 46.81 C225.23 42.91 230.76 39.19 236.46 35.64 C240.11 33.29 243.56 30.71 247.05 28.13 C249.81 26.13 252.61 24.22 255.46 22.34 C257.03 21.3 257.03 21.3 258.63 20.24 C259.18 19.87 259.73 19.51 260.29 19.13 C263.23 17.19 266.15 15.23 269.08 13.28 C270.27 12.49 271.46 11.69 272.65 10.9 C273.24 10.5 273.83 10.11 274.44 9.71 C279.29 6.47 284.15 3.24 289 0 C296.41 7.38 303.23 15.17 309.78 23.32 C312.59 26.71 315.59 29.88 318.66 33.03 C320 35 320 35 320.02 36.88 C318.51 40.02 316.29 42.47 314 45.06 C312.99 46.23 311.98 47.4 310.97 48.57 C310.46 49.15 309.96 49.73 309.44 50.32 C307.42 52.68 305.46 55.09 303.5 57.5 C300.68 60.97 297.82 64.39 294.91 67.79 C290.14 73.37 285.6 79.07 281.23 84.98 C278.92 88.1 276.56 91.18 274.19 94.25 C265.89 105 257.68 115.8 250 127 C244.97 134.29 239.91 141.57 234.81 148.81 C234.08 149.85 234.08 149.85 233.34 150.91 C230.4 155.07 227.39 159.17 224.3 163.21 C222.72 165.38 221.41 167.68 220.12 170.03 C216.71 176.04 212.83 181.8 208.94 187.5 C206.19 191.59 203.88 195.84 201.57 200.18 C199.99 203.02 198.28 205.72 196.5 208.44 C193.43 213.17 190.89 218.04 188.42 223.12 C186.43 227.16 184.23 231.08 182 235 C180.1 234.3 180.1 234.3 178 233 C177.06 230.84 177.06 230.84 176.44 228.12 C176.2 227.11 175.96 226.09 175.72 225.05 C175.48 223.95 175.23 222.85 174.98 221.72 C174.59 220.03 174.59 220.03 174.19 218.31 C173.36 214.71 172.56 211.11 171.75 207.5 C171.19 205.07 170.63 202.64 170.07 200.21 C169.05 195.77 168.03 191.32 167.04 186.88 C166.84 185.98 166.64 185.09 166.43 184.16 C166 182 166 182 166 180 C151.81 180.33 137.62 180.66 123 181 C121.42 188.05 121.42 188.05 119.81 195.25 C117.67 204.77 115.51 214.28 113.19 223.75 C112.9 224.96 112.9 224.96 112.6 226.2 C111.75 229.6 110.96 232.05 109 235 C109 234.34 109 233.68 109 233 C108.01 232.67 107.02 232.34 106 232 C104.75 229.95 103.68 227.96 102.62 225.81 C88.59 198.49 71.36 172.55 53.71 147.44 C51.56 144.38 49.47 141.28 47.37 138.18 C41.27 129.16 34.89 120.4 28.3 111.73 C26.46 109.28 24.67 106.8 22.88 104.31 C18.79 98.67 14.54 93.16 10.28 87.66 C9.02 86.03 7.77 84.39 6.53 82.74 C1.43 76.03 -3.86 69.53 -9.34 63.12 C-12.53 59.39 -15.62 55.59 -18.72 51.79 C-22.78 46.83 -26.89 41.92 -31 37 C-29.58 32.54 -27.13 29.67 -23.94 26.38 C-19.43 21.6 -15.2 16.67 -11.07 11.55 C-2.85 1.42 -2.85 1.42 0 0 Z " fill="#F9FCFE" transform="translate(495,702)"/>
<path d="M0 0 C3.85 1.28 4 2.55 6 6 C7.72 8.14 9.46 10.24 11.25 12.31 C11.74 12.89 12.23 13.46 12.74 14.05 C13.72 15.19 14.7 16.33 15.68 17.47 C16.78 18.74 17.87 20.02 18.96 21.31 C39.94 45.78 67.96 64.26 99 73 C99.73 73.21 100.45 73.42 101.2 73.64 C131.76 82.23 166.42 77.97 195 65 C195.64 64.71 196.27 64.43 196.93 64.13 C221.87 52.72 243.28 33.54 260 12 C260.67 11.14 261.34 10.28 262.04 9.39 C263.23 7.85 264.41 6.32 265.59 4.78 C267 3 267 3 269 1 C270.65 2.65 270.35 4.7 270.56 6.98 C270.65 8.04 270.75 9.1 270.85 10.19 C270.95 11.35 271.05 12.51 271.16 13.7 C271.32 15.47 271.32 15.47 271.48 17.28 C271.82 21.08 272.16 24.89 272.5 28.69 C272.84 32.47 273.18 36.25 273.52 40.04 C273.73 42.4 273.94 44.75 274.15 47.11 C274.25 48.19 274.34 49.27 274.44 50.38 C274.53 51.32 274.61 52.26 274.7 53.24 C275.02 56.18 275.49 59.08 276 62 C269.67 66.68 263.27 71.19 256.71 75.53 C251.73 78.83 246.81 82.2 241.88 85.56 C240.5 86.5 240.5 86.5 239.09 87.46 C234.61 90.52 230.14 93.6 225.7 96.71 C222.16 99.19 218.6 101.62 215 104 C211.3 106.45 207.63 108.94 204 111.5 C200.37 114.06 196.7 116.55 193 119 C186.84 123.09 180.8 127.31 174.76 131.58 C168.19 136.21 161.52 140.68 154.81 145.12 C148.47 149.33 142.15 153.53 136 158 C112.19 141.86 88.42 125.67 64.69 109.42 C55.46 103.1 46.24 96.8 37 90.5 C35.15 89.24 33.3 87.98 31.45 86.71 C27.89 84.29 24.33 81.86 20.77 79.44 C16.85 76.77 12.93 74.09 9.03 71.39 C7.16 70.11 5.29 68.85 3.41 67.59 C2.41 66.9 1.41 66.21 0.38 65.5 C-0.88 64.65 -0.88 64.65 -2.16 63.78 C-4.5 61.51 -4.58 60.2 -5 57 C-4.95 55.06 -4.83 53.13 -4.65 51.2 C-4.55 50.06 -4.45 48.92 -4.35 47.74 C-4.24 46.52 -4.12 45.3 -4 44.04 C-3.89 42.78 -3.78 41.53 -3.66 40.23 C-3.36 36.9 -3.06 33.57 -2.75 30.23 C-2.44 26.83 -2.13 23.42 -1.83 20.02 C-1.22 13.34 -0.62 6.67 0 0 Z " fill="#ECBB7B" transform="translate(504,643)"/>
<path d="M0 0 C5.75 0.97 10.96 1.9 16 5 C17.45 7.89 17.06 10.33 16.99 13.56 C16.96 14.95 16.93 16.35 16.91 17.75 C16.88 18.86 16.88 18.86 16.86 19.99 C16.78 23.92 16.74 27.84 16.7 31.77 C16.64 36.76 16.57 41.76 16.45 46.75 C16.36 50.79 16.31 54.82 16.28 58.86 C16.26 60.39 16.23 61.93 16.18 63.46 C15.63 71.81 15.63 71.81 18.73 79.18 C20.79 80.79 20.79 80.79 22.99 81.88 C27.18 84.21 29.52 88.55 31 93 C32.09 106.16 32.09 106.16 28.41 111.43 C25.56 114.6 22.48 117.52 19 120 C18.34 120 17.68 120 17 120 C16.07 129.53 16.07 129.53 17 139 C19.28 141.58 21.16 142.4 24.32 143.7 C29.07 146.01 31.69 150.36 34 155 C35.79 160.97 36.28 166.29 36.24 172.5 C36.24 173.43 36.24 174.36 36.25 175.31 C36.25 178.39 36.24 181.48 36.23 184.56 C36.23 186.78 36.23 189 36.23 191.22 C36.23 197.23 36.22 203.24 36.2 209.25 C36.19 215.53 36.19 221.81 36.19 228.1 C36.18 238.64 36.17 249.19 36.15 259.73 C36.13 270.59 36.12 281.45 36.11 292.31 C36.11 293.31 36.11 293.31 36.11 294.34 C36.11 297.7 36.1 301.06 36.1 304.42 C36.08 332.28 36.04 360.14 36 388 C18.84 388 1.68 388 -16 388 C-17.65 384.69 -17.14 381 -17.14 377.36 C-17.14 376.46 -17.15 375.55 -17.15 374.62 C-17.16 371.57 -17.16 368.51 -17.16 365.46 C-17.17 363.28 -17.17 361.1 -17.18 358.92 C-17.19 352.98 -17.2 347.04 -17.2 341.1 C-17.2 337.39 -17.21 333.67 -17.21 329.96 C-17.23 317.69 -17.24 305.41 -17.24 293.13 C-17.24 292.47 -17.24 291.8 -17.24 291.12 C-17.24 290.46 -17.24 289.8 -17.24 289.11 C-17.24 279.05 -17.26 268.98 -17.28 258.92 C-17.31 247.23 -17.32 235.54 -17.32 223.85 C-17.32 217.67 -17.33 211.48 -17.35 205.29 C-17.36 199.47 -17.37 193.65 -17.36 187.82 C-17.36 185.69 -17.36 183.55 -17.37 181.42 C-17.38 178.5 -17.38 175.58 -17.37 172.66 C-17.38 171.82 -17.38 170.98 -17.39 170.12 C-17.32 161.26 -15.24 152.56 -9 146 C-5.9 143.37 -2.9 141.3 1 140 C1.03 136.9 1.05 133.79 1.06 130.69 C1.07 129.81 1.08 128.93 1.09 128.02 C1.09 126.75 1.09 126.75 1.1 125.45 C1.1 124.67 1.11 123.89 1.11 123.08 C1.08 120.8 1.08 120.8 0 118 C-1.32 117.31 -2.66 116.65 -4 116 C-9.12 112.66 -11.17 109.71 -12.65 103.75 C-13.5 97.03 -12.15 91.11 -8.25 85.56 C-6.27 83.04 -4.82 81.9 -1.93 80.36 C1.32 78.25 1.32 78.25 1.76 74.6 C1.79 73.22 1.8 71.85 1.77 70.48 C1.78 69.73 1.79 68.97 1.81 68.2 C1.83 65.72 1.82 63.24 1.8 60.77 C1.82 59.04 1.83 57.32 1.85 55.6 C1.88 51.08 1.88 46.56 1.88 42.03 C1.87 37.41 1.91 32.79 1.94 28.18 C1.99 19.12 2.01 10.06 2 1 C1.34 0.67 0.68 0.34 0 0 Z " fill="#F8CF03" transform="translate(330,226)"/>
<path d="M0 0 C7.41 7.38 14.23 15.17 20.78 23.32 C23.59 26.71 26.59 29.88 29.66 33.03 C31 35 31 35 31.02 36.88 C29.51 40.02 27.29 42.47 25 45.06 C23.99 46.23 22.98 47.4 21.97 48.57 C21.46 49.15 20.96 49.73 20.44 50.32 C18.42 52.68 16.46 55.09 14.5 57.5 C11.68 60.97 8.82 64.39 5.91 67.79 C1.14 73.37 -3.4 79.07 -7.77 84.98 C-10.08 88.1 -12.44 91.18 -14.81 94.25 C-23.11 105 -31.32 115.8 -39 127 C-44.03 134.29 -49.09 141.57 -54.19 148.81 C-54.67 149.51 -55.16 150.2 -55.66 150.91 C-58.6 155.07 -61.61 159.17 -64.7 163.21 C-66.28 165.38 -67.59 167.68 -68.88 170.03 C-72.29 176.04 -76.17 181.8 -80.06 187.5 C-83.41 192.47 -86.21 197.71 -89 203 C-92 203 -92 203 -93.97 201.4 C-96.33 198.61 -97.81 195.85 -99.43 192.57 C-99.89 191.64 -99.89 191.64 -100.37 190.68 C-101.36 188.69 -102.33 186.69 -103.31 184.69 C-103.96 183.39 -104.6 182.09 -105.25 180.79 C-108.43 174.36 -111.54 167.89 -114.55 161.38 C-117.85 154.26 -121.34 147.25 -124.88 140.25 C-130.11 129.84 -135.28 119.4 -140.12 108.81 C-140.96 107.09 -141.94 105.44 -142.93 103.8 C-144 101 -144 101 -143.08 98.42 C-140.59 95.52 -137.83 93.39 -134.69 91.25 C-134.07 90.82 -133.46 90.39 -132.82 89.95 C-127.95 86.58 -122.98 83.36 -117.98 80.19 C-112.87 76.94 -107.93 73.51 -103 70 C-97.37 66.01 -91.69 62.12 -85.94 58.31 C-80.3 54.58 -74.76 50.73 -69.25 46.81 C-63.77 42.91 -58.24 39.19 -52.54 35.64 C-48.89 33.29 -45.44 30.71 -41.95 28.13 C-39.19 26.13 -36.39 24.22 -33.54 22.34 C-32.5 21.65 -31.45 20.95 -30.37 20.24 C-29.82 19.87 -29.27 19.51 -28.71 19.13 C-25.77 17.19 -22.85 15.23 -19.92 13.28 C-18.73 12.49 -17.54 11.69 -16.35 10.9 C-15.76 10.5 -15.17 10.11 -14.56 9.71 C-9.71 6.47 -4.85 3.24 0 0 Z " fill="#FAFDFF" transform="translate(784,702)"/>
<path d="M0 0 C4.73 2.18 5.22 4.19 7 9 C15.54 8.38 23.67 6.66 31.99 4.73 C38.62 3.27 45.2 2.16 52 3 C52.99 3.66 53.98 4.32 55 5 C55.24 7.75 55.24 7.75 55.04 11.32 C55 11.98 54.97 12.63 54.94 13.31 C54.83 15.51 54.69 17.7 54.56 19.9 C54.47 21.47 54.39 23.03 54.31 24.6 C54.08 28.83 53.84 33.06 53.59 37.3 C53.34 41.69 53.1 46.09 52.86 50.49 C52.41 58.64 51.94 66.79 51.47 74.94 C51.11 81.04 50.76 87.14 50.42 93.25 C49.94 101.87 49.44 110.49 48.94 119.11 C48.81 121.32 48.68 123.53 48.56 125.74 C48.32 129.82 48.08 133.9 47.83 137.99 C47.76 139.2 47.69 140.41 47.62 141.66 C47.55 142.76 47.49 143.85 47.42 144.97 C47.36 145.93 47.3 146.88 47.25 147.86 C47 150 47 150 46 151 C42.53 151.25 39.04 151.19 35.56 151.19 C34.58 151.2 33.6 151.21 32.59 151.22 C31.66 151.23 30.72 151.23 29.75 151.23 C28.46 151.24 28.46 151.24 27.14 151.24 C25 151 25 151 23 149 C22.32 146.81 22.32 146.81 21.7 144.08 C21.47 143.08 21.24 142.08 21 141.05 C20.75 139.98 20.5 138.91 20.25 137.81 C16.08 120.54 9.89 100.19 -4 88 C-5.81 86.93 -7.62 85.87 -9.44 84.81 C-13.84 81.82 -13.84 81.82 -14.52 78.36 C-14.22 69.38 -13.23 60.61 -11.88 51.75 C-11.71 50.65 -11.71 50.65 -11.54 49.52 C-9.02 32.71 -5.63 16.07 0 0 Z " fill="#2F3641" transform="translate(436,351)"/>
<path d="M0 0 C1.49 0.99 1.49 0.99 3 2 C3.66 1.67 4.32 1.34 5 1 C11.94 0.46 18.58 1.38 25.38 2.69 C26.31 2.86 27.25 3.04 28.22 3.22 C52.97 7.99 52.97 7.99 59 11 C60.1 14.02 60.65 17.23 61.31 20.38 C61.53 21.37 61.74 22.36 61.96 23.39 C63.93 32.95 65.38 42.58 66.75 52.25 C66.86 53 66.96 53.75 67.07 54.52 C67.75 59.34 68.39 64.17 69 69 C69.16 70.11 69.32 71.23 69.48 72.38 C69.61 73.36 69.73 74.33 69.86 75.34 C69.97 76.18 70.08 77.01 70.2 77.87 C70 80 70 80 68.43 81.83 C66.37 83.4 64.23 84.69 62 86 C42.87 100.02 35.48 127.58 32 150 C28.38 150.06 24.75 150.09 21.12 150.12 C20.09 150.14 19.06 150.16 18 150.18 C17.01 150.18 16.02 150.19 15.01 150.2 C13.64 150.21 13.64 150.21 12.25 150.23 C10 150 10 150 8 148 C7.68 145.49 7.48 143.06 7.36 140.54 C7.32 139.76 7.27 138.99 7.23 138.19 C7.08 135.6 6.95 133 6.82 130.41 C6.72 128.58 6.61 126.74 6.51 124.91 C6.24 119.98 5.98 115.05 5.72 110.12 C5.46 105.04 5.18 99.96 4.9 94.88 C4.25 82.92 3.62 70.96 3 59 C2.91 57.28 2.82 55.57 2.73 53.85 C1.79 35.9 0.88 17.95 0 0 Z " fill="#2F3641" transform="translate(787,352)"/>
<path d="M0 0 C14.19 0 28.38 0 43 0 C47.62 17.33 47.62 17.33 49.36 24.67 C49.55 25.49 49.75 26.3 49.95 27.14 C50.35 28.83 50.75 30.52 51.15 32.2 C51.76 34.79 52.38 37.38 53 39.96 C53.39 41.61 53.78 43.27 54.17 44.92 C54.36 45.69 54.54 46.46 54.73 47.25 C55.43 50.24 56 52.92 56 56 C56.66 56.33 57.32 56.66 58 57 C57.69 57.59 57.38 58.17 57.06 58.78 C46.26 79.19 36.32 99.62 27.93 121.14 C27.56 122.08 27.56 122.08 27.18 123.05 C26.51 124.78 25.84 126.51 25.17 128.24 C24 131 24 131 22 134 C22 133.01 22 132.02 22 131 C21.34 131 20.68 131 20 131 C19.54 129.9 19.08 128.79 18.6 127.65 C4.78 93.15 4.78 93.15 -12.69 60.45 C-14.04 57.93 -14.6 55.81 -15 53 C-14.01 52.5 -14.01 52.5 -13 52 C-12.29 50.15 -12.29 50.15 -11.79 47.87 C-11.58 46.99 -11.37 46.11 -11.15 45.21 C-10.92 44.25 -10.7 43.29 -10.47 42.3 C-10.23 41.32 -10 40.34 -9.75 39.33 C-8.99 36.18 -8.25 33.03 -7.5 29.88 C-6.75 26.74 -6 23.61 -5.25 20.48 C-4.78 18.53 -4.32 16.58 -3.85 14.63 C-3.64 13.73 -3.43 12.83 -3.21 11.91 C-3.02 11.13 -2.84 10.35 -2.64 9.54 C-1.83 6.34 -0.91 3.17 0 0 Z " fill="#3F539D" transform="translate(618,882)"/>
<path d="M0 0 C14.15 4.72 21.58 18.46 28 31 C36.3 48.4 39.27 67.73 40.89 86.74 C42.08 100.31 44.29 113.92 48.14 127.01 C48.96 129.85 49.18 132.07 49 135 C39.32 135 33.72 130.38 26.8 123.96 C2.45 98.46 -4.52 56.72 -4.23 23.02 C-4.04 15.45 -3.44 6.87 0 0 Z " fill="#ECBB7B" transform="translate(421,432)"/>
<path d="M0 0 C1.66 9.88 2.39 19.42 2.38 29.44 C2.37 30.13 2.37 30.82 2.37 31.54 C2.25 61.99 -5.25 96 -25 120 C-25.66 120.82 -26.32 121.64 -27 122.49 C-32.14 128.62 -37.31 133.73 -45.5 134.81 C-46.65 134.87 -47.81 134.94 -49 135 C-48.33 127.36 -46.78 120.05 -45.12 112.56 C-42.17 98.79 -40.31 85.02 -39 71 C-39.66 70.67 -40.32 70.34 -41 70 C-35.78 43.42 -28.6 17.33 -5.16 1.18 C-3 0 -3 0 0 0 Z " fill="#ECBB7B" transform="translate(859,432)"/>
<path d="M0 0 C3.35 1.37 4.61 2.5 6.08 5.79 C6.43 6.56 6.78 7.33 7.14 8.12 C7.69 9.36 7.69 9.36 8.25 10.62 C9.05 12.37 9.85 14.12 10.65 15.86 C11.05 16.74 11.44 17.61 11.85 18.51 C13.45 21.98 15.15 25.4 16.88 28.81 C17.19 29.44 17.5 30.06 17.83 30.7 C18.5 32.04 19.17 33.38 19.85 34.72 C22.2 39.37 24.54 44.03 26.88 48.69 C27.35 49.63 27.83 50.58 28.32 51.55 C28.99 52.89 28.99 52.89 29.68 54.26 C30.08 55.06 30.48 55.85 30.89 56.67 C34.03 63.28 34.03 63.28 33.9 66.02 C32.63 68.82 30.77 70.55 28.56 72.69 C27.76 73.48 26.96 74.26 26.13 75.07 C23.28 77.65 21.7 78.13 17.97 78.27 C17.14 78.3 16.31 78.34 15.45 78.37 C11.62 78.48 7.8 78.56 3.97 78.62 C1.96 78.67 -0.05 78.73 -2.06 78.81 C-18.65 79.47 -18.65 79.47 -24.34 75.9 C-28.01 71.98 -30.51 68.45 -31 63 C-29.97 60.25 -28.88 57.79 -27.56 55.19 C-27.02 54.08 -27.02 54.08 -26.47 52.95 C-25.32 50.63 -24.16 48.31 -23 46 C-22.26 44.5 -21.52 43 -20.79 41.5 C-15.62 31.02 -15.62 31.02 -13.38 27.32 C-12.06 25.11 -11.18 23.04 -10.31 20.62 C-7.53 13.43 -3.71 6.75 0 0 Z " fill="#3F539D" transform="translate(638,803)"/>
<path d="M0 0 C1.11 0.91 2.21 1.83 3.31 2.75 C4.23 3.52 4.23 3.52 5.18 4.3 C7 6 7 6 8.03 8.07 C11.27 11.24 15.05 10.63 19.42 10.64 C20.35 10.65 21.28 10.66 22.24 10.67 C24.21 10.69 26.19 10.69 28.16 10.69 C31.16 10.69 34.16 10.75 37.16 10.81 C39.08 10.82 41 10.82 42.92 10.82 C44.25 10.86 44.25 10.86 45.61 10.9 C51.82 10.81 54.9 9.14 59.31 4.8 C59.87 4.2 60.43 3.61 61 3 C62 2 63 1 64 0 C67 1 67 1 68.76 4.02 C69.41 5.35 70.05 6.69 70.69 8.03 C71.2 9.08 71.2 9.08 71.73 10.16 C72.83 12.42 73.92 14.68 75 16.94 C76.08 19.2 77.17 21.45 78.27 23.7 C78.95 25.11 79.63 26.51 80.3 27.92 C81.92 31.26 82.84 32.9 86 35 C85.44 39.49 83.69 42.42 81.25 46.19 C77.78 51.63 74.77 57.17 72 63 C71.34 64.33 70.67 65.67 70 67 C68.1 66.3 68.1 66.3 66 65 C65.06 62.84 65.06 62.84 64.44 60.12 C64.2 59.11 63.96 58.09 63.72 57.05 C63.48 55.95 63.23 54.85 62.98 53.72 C62.59 52.03 62.59 52.03 62.19 50.31 C61.36 46.71 60.56 43.11 59.75 39.5 C59.19 37.07 58.63 34.64 58.07 32.21 C57.05 27.77 56.03 23.32 55.04 18.88 C54.74 17.53 54.74 17.53 54.43 16.16 C54 14 54 14 54 12 C39.81 12.33 25.62 12.66 11 13 C9.95 17.7 8.9 22.4 7.81 27.25 C5.67 36.77 3.51 46.28 1.19 55.75 C0.99 56.56 0.8 57.36 0.6 58.2 C-0.25 61.6 -1.04 64.05 -3 67 C-3 66.34 -3 65.68 -3 65 C-4.49 64.5 -4.49 64.5 -6 64 C-7.35 61.77 -8.53 59.58 -9.69 57.25 C-13 50.76 -16.65 44.62 -20.63 38.51 C-21.08 37.68 -21.53 36.85 -22 36 C-21 34 -21 34 -19.15 32.26 C-16.65 29.63 -15.28 27.05 -13.65 23.81 C-13.35 23.22 -13.06 22.64 -12.75 22.03 C-11.8 20.17 -10.87 18.3 -9.94 16.44 C-9 14.57 -8.06 12.7 -7.11 10.83 C-6.26 9.14 -5.41 7.45 -4.56 5.76 C-3.21 3.38 -2.05 1.77 0 0 Z " fill="#CCDBE6" transform="translate(607,870)"/>
<path d="M0 0 C1.09 0.89 2.17 1.79 3.25 2.69 C3.85 3.19 4.46 3.69 5.08 4.2 C7.42 6.39 9.25 8.28 11 11 C10.89 14.31 10.89 14.31 10.04 18.11 C9.88 18.8 9.73 19.49 9.58 20.2 C9.08 22.47 8.54 24.74 8 27 C7.64 28.57 7.28 30.15 6.93 31.72 C6 35.77 5.03 39.81 4.04 43.85 C3.43 46.35 2.83 48.86 2.23 51.37 C1.84 52.97 1.45 54.57 1.06 56.18 C0.88 56.92 0.7 57.66 0.52 58.43 C-0.3 61.76 -1.07 64.11 -3 67 C-3 66.34 -3 65.68 -3 65 C-4.49 64.5 -4.49 64.5 -6 64 C-7.35 61.77 -8.53 59.58 -9.69 57.25 C-13 50.76 -16.65 44.62 -20.63 38.51 C-21.08 37.68 -21.53 36.85 -22 36 C-21 34 -21 34 -19.15 32.26 C-16.65 29.63 -15.28 27.05 -13.65 23.81 C-13.35 23.22 -13.06 22.64 -12.75 22.03 C-11.8 20.17 -10.87 18.3 -9.94 16.44 C-9 14.57 -8.06 12.7 -7.11 10.83 C-6.26 9.14 -5.41 7.45 -4.56 5.76 C-3.21 3.38 -2.05 1.77 0 0 Z " fill="#D0DEE7" transform="translate(607,870)"/>
<path d="M0 0 C0.66 0 1.32 0 2 0 C3.03 1.65 4.02 3.32 5 5 C6.67 6.97 8.09 8.05 10.35 9.35 C12.96 10.98 14.89 12.65 17.06 14.83 C17.82 15.59 18.58 16.35 19.36 17.13 C20.17 17.95 20.97 18.77 21.8 19.61 C22.64 20.44 23.47 21.28 24.34 22.15 C27 24.82 29.66 27.51 32.31 30.19 C34.12 32.01 35.93 33.82 37.74 35.64 C42.16 40.09 46.58 44.54 51 49 C50.5 49.99 50.5 49.99 50 51 C45.73 50.53 43.86 48 41 45 C40.01 44.34 39.02 43.68 38 43 C38 42.34 38 41.68 38 41 C37.34 41 36.68 41 36 41 C34.38 39.62 34.38 39.62 33 38 C33 37.34 33 36.68 33 36 C32.36 35.73 31.72 35.46 31.06 35.19 C29 34 29 34 28 31 C27.34 30.67 26.68 30.34 26 30 C25.01 29.34 24.02 28.68 23 28 C23 27.34 23 26.68 23 26 C22.36 25.73 21.72 25.46 21.06 25.19 C19 24 19 24 18 21 C17.34 21 16.68 21 16 21 C14.62 19.6 14.62 19.6 13 17.62 C8.62 12.46 3.83 7.74 -1 3 C-0.67 2.01 -0.34 1.02 0 0 Z " fill="#3C4652" transform="translate(159,1062)"/>
<path d="M0 0 C5.33 4.45 10.3 9.15 15.2 14.07 C15.96 14.82 16.71 15.58 17.49 16.36 C19.08 17.95 20.67 19.54 22.26 21.13 C24.69 23.56 27.12 25.99 29.55 28.41 C31.1 29.96 32.65 31.51 34.2 33.07 C34.92 33.79 35.65 34.51 36.39 35.25 C39.81 38.69 43.07 42.12 46 46 C43 46 43 46 41.17 44.52 C40.49 43.83 39.81 43.13 39.11 42.42 C37.95 41.25 37.95 41.25 36.77 40.05 C35.93 39.2 35.1 38.35 34.25 37.47 C33.39 36.6 32.53 35.74 31.65 34.85 C28.91 32.07 26.17 29.29 23.44 26.5 C20.7 23.71 17.96 20.93 15.21 18.15 C13.5 16.42 11.8 14.69 10.1 12.95 C9.32 12.17 8.55 11.38 7.76 10.58 C7.08 9.89 6.4 9.19 5.7 8.48 C4.12 6.78 4.12 6.78 2 7 C1.01 5.02 0.02 3.04 -1 1 C-0.67 0.67 -0.34 0.34 0 0 Z " fill="#485CA1" transform="translate(1068,162)"/>
<path d="M0 0 C0.66 0 1.32 0 2 0 C3 1.67 4 3.33 5 5 C6.65 6.81 8.36 8.58 10.11 10.3 C10.59 10.78 11.07 11.26 11.57 11.76 C13.11 13.28 14.65 14.8 16.19 16.31 C17.23 17.35 18.28 18.39 19.33 19.42 C21.88 21.95 24.44 24.48 27 27 C26.67 27.66 26.34 28.32 26 29 C25.01 28.67 24.02 28.34 23 28 C23 27.34 23 26.68 23 26 C22.36 25.73 21.72 25.46 21.06 25.19 C19 24 19 24 18 21 C17.34 21 16.68 21 16 21 C14.62 19.6 14.62 19.6 13 17.62 C8.62 12.46 3.83 7.74 -1 3 C-0.67 2.01 -0.34 1.02 0 0 Z " fill="#3A4448" transform="translate(159,1062)"/>
<path d="M0 0 C5.07 4.24 9.8 8.67 14.44 13.38 C15.07 14.02 15.71 14.66 16.37 15.32 C17.91 16.88 19.46 18.44 21 20 C20.67 20.99 20.34 21.98 20 23 C17.96 21.38 15.96 19.71 14 18 C14 17.34 14 16.68 14 16 C13.01 15.67 12.02 15.34 11 15 C11 14.34 11 13.68 11 13 C10.34 13 9.68 13 9 13 C7.38 11.62 7.38 11.62 6 10 C6 9.34 6 8.68 6 8 C5.36 7.73 4.72 7.46 4.06 7.19 C2 6 2 6 1 3 C0.34 2.67 -0.32 2.34 -1 2 C-0.67 1.34 -0.34 0.68 0 0 Z " fill="#495256" transform="translate(186,1090)"/>
<path d="M0 0 C-1.45 3.33 -3.29 5.54 -5.84 8.11 C-6.6 8.86 -7.35 9.62 -8.12 10.39 C-8.91 11.17 -9.69 11.95 -10.5 12.75 C-11.29 13.54 -12.07 14.34 -12.88 15.15 C-14.01 16.28 -14.01 16.28 -15.16 17.42 C-16.19 18.45 -16.19 18.45 -17.24 19.5 C-19 21 -19 21 -21 21 C-19.55 17.67 -17.71 15.46 -15.16 12.89 C-14.4 12.14 -13.65 11.38 -12.88 10.61 C-12.09 9.83 -11.31 9.05 -10.5 8.25 C-9.71 7.46 -8.93 6.66 -8.12 5.85 C-7.37 5.1 -6.62 4.35 -5.84 3.58 C-4.81 2.55 -4.81 2.55 -3.76 1.5 C-2 0 -2 0 0 0 Z " fill="#3C5062" transform="translate(1082,1101)"/>
<path d="M0 0 C5.07 4.24 9.8 8.67 14.44 13.38 C15.07 14.02 15.71 14.66 16.37 15.32 C17.91 16.88 19.46 18.44 21 20 C20.01 20.33 19.02 20.66 18 21 C17.59 20.58 17.17 20.15 16.75 19.71 C14.88 17.8 13 15.9 11.12 14 C10.47 13.33 9.82 12.66 9.15 11.98 C8.53 11.34 7.9 10.71 7.26 10.06 C6.68 9.48 6.11 8.89 5.51 8.29 C4.08 6.78 4.08 6.78 2 7 C1.01 5.02 0.02 3.04 -1 1 C-0.67 0.67 -0.34 0.34 0 0 Z " fill="#5668A9" transform="translate(1068,162)"/>
<path d="M0 0 C0.99 0.33 1.98 0.66 3 1 C2.06 1.92 2.06 1.92 1.1 2.86 C0.28 3.67 -0.53 4.48 -1.38 5.31 C-2.19 6.11 -3 6.91 -3.84 7.74 C-6.13 10 -6.13 10 -8 13 C-8.33 12.01 -8.66 11.02 -9 10 C-7.64 8.03 -7.64 8.03 -5.69 5.94 C-5.05 5.25 -4.42 4.55 -3.76 3.84 C-2.52 2.55 -1.27 1.27 0 0 Z " fill="#5177B2" transform="translate(152,223)"/>
<path d="M0 0 C2.31 -0.31 2.31 -0.31 5 0 C6.69 2.44 6.69 2.44 8 5 C8.66 5.33 9.32 5.66 10 6 C9.67 6.66 9.34 7.32 9 8 C5.02 5.9 2.65 3.63 0 0 Z " fill="#7191C2" transform="translate(1124,224)"/>
<path d="M0 0 C7.48 6.15 7.48 6.15 10 10 C6.37 10 5.68 9.35 3 7 C1.63 5.36 0.29 3.7 -1 2 C-0.67 1.34 -0.34 0.68 0 0 Z " fill="#46609E" transform="translate(1068,162)"/>
<path d="M0 0 C3.3 0 6.6 0 10 0 C10 0.33 10 0.66 10 1 C6.7 1 3.4 1 0 1 C0 0.67 0 0.34 0 0 Z " fill="#FAFDFF" transform="translate(721,1275)"/>
<path d="M0 0 C2.97 0 5.94 0 9 0 C9 0.33 9 0.66 9 1 C6.03 1 3.06 1 0 1 C0 0.67 0 0.34 0 0 Z " fill="#FAFDFF" transform="translate(550,1275)"/>
<path d="M0 0 C2.64 0 5.28 0 8 0 C8 0.33 8 0.66 8 1 C5.36 1 2.72 1 0 1 C0 0.67 0 0.34 0 0 Z " fill="#FAFDFF" transform="translate(753,1270)"/>
<path d="M0 0 C2.64 0 5.28 0 8 0 C8 0.33 8 0.66 8 1 C5.36 1 2.72 1 0 1 C0 0.67 0 0.34 0 0 Z " fill="#FAFDFF" transform="translate(519,1270)"/>
<path d="M0 0 C1.98 0 3.96 0 6 0 C6 0.33 6 0.66 6 1 C4.02 1 2.04 1 0 1 C0 0.67 0 0.34 0 0 Z " fill="#FAFDFF" transform="translate(778,1265)"/>
<path d="M0 0 C0.33 0 0.66 0 1 0 C1 1.65 1 3.3 1 5 C0.67 5 0.34 5 0 5 C0 3.35 0 1.7 0 0 Z " fill="#FAFDFF" transform="translate(1275,721)"/>
<path d="M0 0 C0.33 0 0.66 0 1 0 C1 1.65 1 3.3 1 5 C0.67 5 0.34 5 0 5 C0 3.35 0 1.7 0 0 Z " fill="#FAFDFF" transform="translate(1275,554)"/>
<path d="M0 0 C4 1 4 1 4 1 Z " fill="#FAFDFF" transform="translate(801,1260)"/>
<path d="M0 0 C4 1 4 1 4 1 Z " fill="#FAFDFF" transform="translate(475,1260)"/>
<path d="M0 0 C1 4 1 4 1 4 Z " fill="#FAFDFF" transform="translate(1265,498)"/>
<path d="M0 0 C3 1 3 1 3 1 Z " fill="#ECF2F7" transform="translate(772,1267)"/>
<path d="M0 0 C3 1 3 1 3 1 Z " fill="#ECF2F7" transform="translate(505,1267)"/>
<path d="M0 0 C3 1 3 1 3 1 Z " fill="#ECF2F7" transform="translate(794,1262)"/>
<path d="M0 0 C3 1 3 1 3 1 Z " fill="#ECF2F7" transform="translate(483,1262)"/>
<path d="M0 0 C3 1 3 1 3 1 Z " fill="#FAFDFF" transform="translate(819,1255)"/>
<path d="M0 0 C3 1 3 1 3 1 Z " fill="#FAFDFF" transform="translate(448,1252)"/>
<path d="M0 0 C3 1 3 1 3 1 Z " fill="#FAFDFF" transform="translate(836,1250)"/>
<path d="M0 0 C3 1 3 1 3 1 Z " fill="#FAFDFF" transform="translate(441,1250)"/>
<path d="" fill="#FAFDFF" transform="translate(0,0)"/>
<path d="" fill="#FAFDFF" transform="translate(0,0)"/>
<path d="" fill="#FAFDFF" transform="translate(0,0)"/>
<path d="M0 0 C2 1 2 1 2 1 Z " fill="#FAFDFF" transform="translate(747,1272)"/>
<path d="M0 0 C2 1 2 1 2 1 Z " fill="#FAFDFF" transform="translate(531,1272)"/>
<path d="M0 0 C2 1 2 1 2 1 Z " fill="#FAFDFF" transform="translate(812,1257)"/>
<path d="M0 0 C2 1 2 1 2 1 Z " fill="#FAFDFF" transform="translate(830,1252)"/>
<path d="M0 0 C2 1 2 1 2 1 Z " fill="#FAFDFF" transform="translate(851,1245)"/>
<path d="M0 0 C2 1 2 1 2 1 Z " fill="#FAFDFF" transform="translate(427,1245)"/>
<path d="M0 0 C2 1 2 1 2 1 Z " fill="#E5EDF3" transform="translate(860,1242)"/>
<path d="M0 0 C2 1 2 1 2 1 Z " fill="#FAFDFF" transform="translate(865,1240)"/>
<path d="M0 0 C2 1 2 1 2 1 Z " fill="#FAFDFF" transform="translate(413,1240)"/>
<path d="M0 0 C2 1 2 1 2 1 Z " fill="#FAFDFF" transform="translate(878,1235)"/>
<path d="M0 0 C2 1 2 1 2 1 Z " fill="#FAFDFF" transform="translate(890,1230)"/>
<path d="M0 0 C2 1 2 1 2 1 Z " fill="#FAFDFF" transform="translate(388,1230)"/>
<path d="M0 0 C2 1 2 1 2 1 Z " fill="#FAFDFF" transform="translate(901,1225)"/>
<path d="M0 0 C2 1 2 1 2 1 Z " fill="#FAFDFF" transform="translate(340,1207)"/>
<path d="M0 0 C2 1 2 1 2 1 Z " fill="#FAFDFF" transform="translate(968,1190)"/>
<path d="" fill="#FAFDFF" transform="translate(0,0)"/>
<path d="" fill="#FAFDFF" transform="translate(0,0)"/>
<path d="" fill="#FAFDFF" transform="translate(0,0)"/>
<path d="" fill="#FAFDFF" transform="translate(0,0)"/>
<path d="" fill="#FAFDFF" transform="translate(0,0)"/>
<path d="" fill="#FAFDFF" transform="translate(0,0)"/>
<path d="" fill="#D0DEE7" transform="translate(0,0)"/>
<path d="" fill="#FAFDFF" transform="translate(0,0)"/>
<path d="" fill="#FAFDFF" transform="translate(0,0)"/>
<path d="" fill="#FAFDFF" transform="translate(0,0)"/>
<path d="" fill="#FAFDFF" transform="translate(0,0)"/>
<path d="" fill="#FAFDFF" transform="translate(0,0)"/>
<path d="" fill="#FAFDFF" transform="translate(0,0)"/>
<path d="" fill="#FAFDFF" transform="translate(0,0)"/>
<path d="" fill="#FAFDFF" transform="translate(0,0)"/>
<path d="" fill="#FAFDFF" transform="translate(0,0)"/>
<path d="" fill="#FAFDFF" transform="translate(0,0)"/>
<path d="" fill="#FAFDFF" transform="translate(0,0)"/>
<path d="" fill="#FAFDFF" transform="translate(0,0)"/>
<path d="" fill="#FAFDFF" transform="translate(0,0)"/>
<path d="" fill="#FAFDFF" transform="translate(0,0)"/>
<path d="" fill="#FAFDFF" transform="translate(0,0)"/>
<path d="" fill="#FAFDFF" transform="translate(0,0)"/>
<path d="" fill="#FAFDFF" transform="translate(0,0)"/>
<path d="" fill="#FAFDFF" transform="translate(0,0)"/>
<path d="" fill="#FAFDFF" transform="translate(0,0)"/>
<path d="" fill="#FAFDFF" transform="translate(0,0)"/>
<path d="" fill="#FAFDFF" transform="translate(0,0)"/>
<path d="" fill="#FAFDFF" transform="translate(0,0)"/>
<path d="" fill="#FAFDFF" transform="translate(0,0)"/>
<path d="" fill="#FAFDFF" transform="translate(0,0)"/>
<path d="" fill="#FAFDFF" transform="translate(0,0)"/>
<path d="" fill="#FAFDFF" transform="translate(0,0)"/>
<path d="" fill="#FAFDFF" transform="translate(0,0)"/>
<path d="" fill="#FAFDFF" transform="translate(0,0)"/>
<path d="" fill="#273135" transform="translate(0,0)"/>
<path d="" fill="#FAFDFF" transform="translate(0,0)"/>
<path d="" fill="#FAFDFF" transform="translate(0,0)"/>
<path d="" fill="#FAFDFF" transform="translate(0,0)"/>
<path d="" fill="#FAFDFF" transform="translate(0,0)"/>
<path d="" fill="#FAFDFF" transform="translate(0,0)"/>
<path d="" fill="#FAFDFF" transform="translate(0,0)"/>
<path d="" fill="#FAFDFF" transform="translate(0,0)"/>
<path d="" fill="#FAFDFF" transform="translate(0,0)"/>
<path d="" fill="#FAFDFF" transform="translate(0,0)"/>
<path d="" fill="#FAFDFF" transform="translate(0,0)"/>
<path d="" fill="#FAFDFF" transform="translate(0,0)"/>
<path d="" fill="#FAFDFF" transform="translate(0,0)"/>
<path d="" fill="#FAFDFF" transform="translate(0,0)"/>
<path d="" fill="#FAFDFF" transform="translate(0,0)"/>
<path d="" fill="#FAFDFF" transform="translate(0,0)"/>
<path d="" fill="#FAFDFF" transform="translate(0,0)"/>
<path d="" fill="#FAFDFF" transform="translate(0,0)"/>
<path d="" fill="#FAFDFF" transform="translate(0,0)"/>
<path d="" fill="#FAFDFF" transform="translate(0,0)"/>
<path d="" fill="#FAFDFF" transform="translate(0,0)"/>
<path d="" fill="#FAFDFF" transform="translate(0,0)"/>
<path d="" fill="#FAFDFF" transform="translate(0,0)"/>
<path d="" fill="#FAFDFF" transform="translate(0,0)"/>
<path d="" fill="#557EA3" transform="translate(0,0)"/>
<path d="" fill="#FAFDFF" transform="translate(0,0)"/>
<path d="" fill="#557EA3" transform="translate(0,0)"/>
<path d="" fill="#FAFDFF" transform="translate(0,0)"/>
<path d="" fill="#6FB0DF" transform="translate(0,0)"/>
<path d="" fill="#557EA3" transform="translate(0,0)"/>
<path d="" fill="#D0DEE7" transform="translate(0,0)"/>
<path d="" fill="#FAFDFF" transform="translate(0,0)"/>
<path d="" fill="#557EA3" transform="translate(0,0)"/>
<path d="" fill="#FAFDFF" transform="translate(0,0)"/>
<path d="" fill="#FAFDFF" transform="translate(0,0)"/>
<path d="" fill="#557EA3" transform="translate(0,0)"/>
<path d="" fill="#FAFDFF" transform="translate(0,0)"/>
<path d="" fill="#FAFDFF" transform="translate(0,0)"/>
<path d="" fill="#557EA3" transform="translate(0,0)"/>
<path d="" fill="#FAFDFF" transform="translate(0,0)"/>
<path d="" fill="#FAFDFF" transform="translate(0,0)"/>
<path d="" fill="#FAFDFF" transform="translate(0,0)"/>
<path d="" fill="#FAFDFF" transform="translate(0,0)"/>
<path d="" fill="#557EA3" transform="translate(0,0)"/>
<path d="" fill="#FAFDFF" transform="translate(0,0)"/>
<path d="" fill="#FAFDFF" transform="translate(0,0)"/>
<path d="" fill="#557EA3" transform="translate(0,0)"/>
<path d="" fill="#557EA3" transform="translate(0,0)"/>
<path d="" fill="#FAFDFF" transform="translate(0,0)"/>
<path d="" fill="#FAFDFF" transform="translate(0,0)"/>
<path d="" fill="#557EA3" transform="translate(0,0)"/>
<path d="" fill="#FAFDFF" transform="translate(0,0)"/>
<path d="" fill="#FAFDFF" transform="translate(0,0)"/>
<path d="" fill="#FAFDFF" transform="translate(0,0)"/>
<path d="" fill="#FAFDFF" transform="translate(0,0)"/>
<path d="" fill="#FAFDFF" transform="translate(0,0)"/>
<path d="" fill="#FAFDFF" transform="translate(0,0)"/>
<path d="" fill="#557EA3" transform="translate(0,0)"/>
<path d="" fill="#557EA3" transform="translate(0,0)"/>
<path d="" fill="#FAFDFF" transform="translate(0,0)"/>
<path d="" fill="#557EA3" transform="translate(0,0)"/>
<path d="" fill="#FAFDFF" transform="translate(0,0)"/>
<path d="" fill="#FAFDFF" transform="translate(0,0)"/>
<path d="" fill="#FAFDFF" transform="translate(0,0)"/>
<path d="" fill="#3F539D" transform="translate(0,0)"/>
<path d="" fill="#FAFDFF" transform="translate(0,0)"/>
<path d="" fill="#557EA3" transform="translate(0,0)"/>
<path d="" fill="#557EA3" transform="translate(0,0)"/>
<path d="" fill="#557EA3" transform="translate(0,0)"/>
<path d="" fill="#557EA3" transform="translate(0,0)"/>
<path d="" fill="#FAFDFF" transform="translate(0,0)"/>
<path d="" fill="#557EA3" transform="translate(0,0)"/>
<path d="" fill="#6FB0DF" transform="translate(0,0)"/>
<path d="" fill="#557EA3" transform="translate(0,0)"/>
<path d="" fill="#6FB0DF" transform="translate(0,0)"/>
</svg>
